<svg xmlns="http://www.w3.org/2000/svg" viewBox="0 0 105.13 94.8"><defs><style>.cls-1{fill:#dce5ff;}.cls-2{fill:#3760ec;}.cls-3{fill:#f7931e;}.cls-4{fill:#fff;}</style></defs><title>online-tracking</title><g id="Layer_2" data-name="Layer 2"><g id="Layer_1-2" data-name="Layer 1"><path class="cls-1" d="M85.5,65.7H3.8V76.6c0,1.5,4.4,2.6,9.8,2.6H77.5c4.4,0,8-1,8-2.2V65.7Z"/><path class="cls-2" d="M85.5,38.2V64H3.8V27.3c0-7.8,6.1-8.7,8.7-8.7H59.4v-1a26.35,26.35,0,0,1,.2-2.8H12.5C6.5,14.8,0,18.1,0,27.3V70.5C0,79.7,6.5,83,12.5,83H36.3v8h-4a1.9,1.9,0,0,0,0,3.8H57.7a1.9,1.9,0,0,0,0-3.8H53V83H76.8c9.2,0,12.5-6.5,12.5-12.5V36.8A24.64,24.64,0,0,1,85.5,38.2ZM49.1,90.9h-9v-8h9ZM76.8,79.2H12.4c-2.6,0-8.7-.8-8.7-8.7V67.7H85.4v2.8h.1C85.5,73.1,84.7,79.2,76.8,79.2Z"/><rect class="cls-1" x="39.2" y="82.3" width="11.7" height="8.6"/><path class="cls-3" d="M54.7,31.2H50.5a.9.9,0,1,0,0,1.8h3.3v3.3a.9.9,0,1,0,1.8,0V32.1A.9.9,0,0,0,54.7,31.2Z"/><path class="cls-3" d="M54.7,47.1a.9.9,0,0,0-.9.9v3.3H50.5a.9.9,0,0,0,0,1.8h4.2a.9.9,0,0,0,.9-.9V48A.9.9,0,0,0,54.7,47.1Z"/><path class="cls-3" d="M38.7,31.2H34.5a.9.9,0,0,0-.9.9v4.2a.9.9,0,1,0,1.8,0V33h3.3a.9.9,0,0,0,0-1.8Z"/><path class="cls-3" d="M38.7,51.3H35.4V48a.9.9,0,0,0-1.8,0v4.2a.9.9,0,0,0,.9.9h4.2a.9.9,0,1,0,0-1.8Z"/><circle class="cls-4" cx="80.5" cy="17.6" r="13.1"/><path class="cls-3" d="M104.5,39.9a2.37,2.37,0,0,1-3.4,3.3l-10.5-11a18.25,18.25,0,1,1,3.3-3.1ZM93.6,17.6A13.1,13.1,0,1,0,80.5,30.7,13.14,13.14,0,0,0,93.6,17.6Z"/></g></g></svg>