<svg xmlns="http://www.w3.org/2000/svg" viewBox="0 0 100.6 80"><defs><style>.cls-1{fill:#fff;}.cls-2{fill:#3760ec;}.cls-3{fill:#dce5ff;}.cls-4{fill:#f9d6b4;}.cls-5{fill:#f7931e;}</style></defs><title>process-transparency</title><g id="Layer_2" data-name="Layer 2"><g id="Layer_1-2" data-name="Layer 1"><path class="cls-1" d="M63.5,1.3H32.2a5.74,5.74,0,0,0-5.8,5.8V66.3a5.74,5.74,0,0,0,5.8,5.8H77.6a5.74,5.74,0,0,0,5.8-5.8V21.2Z"/><path class="cls-2" d="M77.6,73.3H32.2a7.13,7.13,0,0,1-7.1-7.1V7.1A7.13,7.13,0,0,1,32.2,0H63.5a1,1,0,0,1,.9.4L84.3,20.3a1.09,1.09,0,0,1,.4.9v7.6a1.3,1.3,0,0,1-2.6,0v-7L63,2.6H32.3A4.44,4.44,0,0,0,27.9,7V66.2a4.44,4.44,0,0,0,4.4,4.4H77.7a4.44,4.44,0,0,0,4.4-4.4V48.9a1.3,1.3,0,0,1,2.6,0V66.2A7.13,7.13,0,0,1,77.6,73.3Z"/><rect class="cls-3" x="33.2" y="28.8" width="43.6" height="2.1"/><rect class="cls-3" x="33.2" y="38.5" width="43.6" height="2.1"/><rect class="cls-3" x="33.2" y="48.1" width="43.6" height="2.1"/><path class="cls-3" d="M63.2,3V16.1a5.48,5.48,0,0,0,5.5,5.5H81.8Z"/><rect class="cls-2" x="35" y="58.9" width="2.7" height="2.7"/><rect class="cls-2" x="42.2" y="58.9" width="2.7" height="2.7"/><rect class="cls-2" x="49.4" y="58.9" width="2.7" height="2.7"/><polygon class="cls-4" points="71.2 61.4 61.9 63.6 64.2 54.2 87 31.4 94 38.5 71.2 61.4"/><path class="cls-5" d="M62.3,64.4a1,1,0,0,1-.9-.4,1.75,1.75,0,0,1-.4-1.2l2.3-9.3c0-.3.1-.4.4-.7L86.5,30a1.09,1.09,0,0,1,.9-.4h0a1,1,0,0,1,.9.4l7,7a1.39,1.39,0,0,1,0,1.9L72.5,61.7a2.15,2.15,0,0,1-.7.4l-9.3,2.3Zm3.5-10.1-1.7,6.8,6.8-1.7L92.5,37.9l-5.1-5.1Z"/><path class="cls-1" d="M98.7,30.8l-4.2-4.2a1.93,1.93,0,0,0-2.8,0l-4.3,4.3,7,7,4.3-4.3A1.93,1.93,0,0,0,98.7,30.8Z"/><path class="cls-5" d="M94.4,39.3a1,1,0,0,1-.9-.4l-7-7.1a1.39,1.39,0,0,1,0-1.9l4.3-4.3a3.52,3.52,0,0,1,4.7,0l4.2,4.2a3.15,3.15,0,0,1,.9,2.4,4.17,4.17,0,0,1-.9,2.4l-4.3,4.3A1.53,1.53,0,0,1,94.4,39.3Zm-5.1-8.5,5.1,5.1,3.4-3.4c.1-.1.1-.4.1-.4a.6.6,0,0,0-.1-.4l-4.2-4.2c-.1-.1-.4-.1-.4-.1a.6.6,0,0,0-.4.1Z"/><path class="cls-5" d="M70.9,41.1a1.39,1.39,0,0,1,0-1.9L82.3,27.8a2.71,2.71,0,0,1,3.9,0l2.1,2.1a1.34,1.34,0,0,1-1.9,1.9l-2.1-2.1h-.1L72.8,41.1A1.23,1.23,0,0,1,70.9,41.1Z"/><path class="cls-5" d="M59.6,65.7a1.39,1.39,0,0,1,0-1.9l1.7-1.7A1.34,1.34,0,1,1,63.2,64l-1.7,1.7A1.39,1.39,0,0,1,59.6,65.7Z"/><rect class="cls-5" x="71.81" y="50.69" width="2.7" height="2.7" transform="translate(-15.37 66.98) rotate(-45.01)"/><rect class="cls-5" x="77.09" y="45.5" width="2.7" height="2.7" transform="translate(-10.15 69.2) rotate(-45.01)"/><rect class="cls-5" x="82.29" y="40.51" width="2.7" height="2.7" transform="translate(-5.1 71.41) rotate(-45.01)"/><polygon class="cls-5" points="53.7 9.1 40.3 22.5 32.4 15 34.8 12.6 40 17.8 51 6.8 53.7 9.1"/><path class="cls-1" d="M45.3,58.9v-5l-4.1-1.8a10.6,10.6,0,0,0-1-3l2.2-3.9a23.39,23.39,0,0,0-2.9-4.1l-4.3,1a23.48,23.48,0,0,0-2.5-1.9l-.4-4.5a26,26,0,0,0-4.7-1.6l-2.9,3.4H21.6l-2.9-3.4A20.07,20.07,0,0,0,14,35.7l-.4,4.5a15,15,0,0,0-2.5,1.9l-4.3-1a20.18,20.18,0,0,0-2.9,4.1l2.2,3.9c-.4,1-.7,2-1,3L1,53.9v5l4.1,1.8a10.6,10.6,0,0,0,1,3L3.9,67.6a23.39,23.39,0,0,0,2.9,4.1l4.3-1a23.48,23.48,0,0,0,2.5,1.9l.4,4.5a26,26,0,0,0,4.7,1.6l2.9-3.4h3.1l2.9,3.4a20.07,20.07,0,0,0,4.7-1.6l.4-4.5a15,15,0,0,0,2.5-1.9l4.3,1a20.18,20.18,0,0,0,2.9-4.1l-2.2-3.9c.4-1,.7-2,1-3Z"/><path class="cls-2" d="M27.3,80l-3-3.5h-2l-3,3.5-.7-.2a20.3,20.3,0,0,1-4.9-1.7l-.7-.3-.4-4.6c-.6-.4-1.1-.8-1.7-1.2L6.5,73,6,72.4a26.06,26.06,0,0,1-3.1-4.3l-.4-.6,2.3-4a15.19,15.19,0,0,1-.6-2L0,59.6V52.9L4.2,51c.2-.7.4-1.4.6-2L2.5,45l.4-.6A26.06,26.06,0,0,1,6,40.1l.5-.6,4.4,1c.5-.4,1.1-.8,1.7-1.2l.4-4.6.7-.3a28.42,28.42,0,0,1,4.9-1.7l.7-.2,3,3.5h2l3-3.5.7.2a20.3,20.3,0,0,1,4.9,1.7l.7.3.4,4.6c.6.4,1.1.8,1.7,1.2l4.4-1,.5.6a26.06,26.06,0,0,1,3.1,4.3l.4.6-2.3,4a15.19,15.19,0,0,1,.6,2l4.2,1.9v6.7l-4.2,1.9c-.2.7-.4,1.4-.6,2l2.3,4-.4.6a26.06,26.06,0,0,1-3.1,4.3l-.5.6-4.4-1c-.5.4-1.1.8-1.7,1.2l-.4,4.6-.7.3A28.42,28.42,0,0,1,28,79.8Zm-6.2-6.1h4.3l2.8,3.3a26.37,26.37,0,0,0,3-1l.4-4.4.5-.3a19.52,19.52,0,0,0,2.3-1.7l.5-.4,4.2,1A18.48,18.48,0,0,0,41,67.7l-2.2-3.8.2-.6a15.18,15.18,0,0,0,.9-2.8l.1-.6,3.9-1.7V54.8L40,53.1l-.1-.6a13.09,13.09,0,0,0-.9-2.8l-.2-.6L41,45.3c-.6-.9-1.2-1.8-1.9-2.7l-4.2,1-.5-.4a19.52,19.52,0,0,0-2.3-1.7l-.5-.3-.4-4.4a17.6,17.6,0,0,0-3-1l-2.8,3.3H21.1l-2.8-3.3a26.37,26.37,0,0,0-3,1l-.4,4.4-.5.3a19.52,19.52,0,0,0-2.3,1.7l-.5.4-4.2-1a18.48,18.48,0,0,0-1.9,2.7l2.2,3.8-.2.6a15.18,15.18,0,0,0-.9,2.8l-.1.6L2.6,54.8v3.4l3.9,1.7.1.6a13.09,13.09,0,0,0,.9,2.8l.2.6L5.5,67.7c.6.9,1.2,1.8,1.9,2.7l4.2-1,.5.4a19.52,19.52,0,0,0,2.3,1.7l.5.3.4,4.4a17.6,17.6,0,0,0,3,1Z"/><circle class="cls-3" cx="23.8" cy="56.8" r="11.1"/><path class="cls-2" d="M23.3,68.7A12.4,12.4,0,1,1,35.7,56.3,12.4,12.4,0,0,1,23.3,68.7Zm0-22.2a9.9,9.9,0,1,0,9.9,9.9A9.92,9.92,0,0,0,23.3,46.5Z"/></g></g></svg>