<svg xmlns="http://www.w3.org/2000/svg" viewBox="0 0 92.3 70"><defs><style>.cls-1{fill:#fff;}.cls-2{fill:#f7931e;}.cls-3{fill:#3760ec;}.cls-4{fill:#193651;}.cls-5{fill:#f9d6b4;}</style></defs><title>save-time</title><g id="Layer_2" data-name="Layer 2"><g id="Layer_1-2" data-name="Layer 1"><path class="cls-1" d="M49.6,62a30.65,30.65,0,0,1-13.9,3.8V62.7H34.1v3.1A30.78,30.78,0,0,1,20.2,62l1.4-2.6-1.4-.9-1.4,2.6A30.48,30.48,0,0,1,8.7,51l2.6-1.4-.9-1.4L7.8,49.6A30.65,30.65,0,0,1,4,35.7H7.1V34.1H4A30.78,30.78,0,0,1,7.8,20.2l2.6,1.4.9-1.4L8.7,18.8A30.48,30.48,0,0,1,18.8,8.7l1.4,2.6,1.4-.9L20.2,7.8A30.65,30.65,0,0,1,34.1,4V7.1h1.6V4A30.78,30.78,0,0,1,49.6,7.8l-1.4,2.6,1.4.9L51,8.7A30.48,30.48,0,0,1,61.1,18.8l-2.6,1.4.9,1.4L62,20.2a30.65,30.65,0,0,1,3.8,13.9H62.7v1.6h3.1A31.21,31.21,0,0,1,62,49.6l-2.6-1.4-.9,1.4L61.1,51A30.48,30.48,0,0,1,51,61.1l-1.4-2.6-1.4.9Z"/><path class="cls-2" d="M46.7,14.6,35,34.9V11.5A23,23,0,0,1,46.7,14.6Z"/><path class="cls-3" d="M62,20.2l-2.6,1.4-.9-1.4,2.6-1.4A30.48,30.48,0,0,0,51,8.7l-1.4,2.6-1.4-.9,1.4-2.6A31.36,31.36,0,0,0,35.7,4V7.1H34.1V4A29.77,29.77,0,0,0,20.2,7.8l1.4,2.6-1.4.9L18.8,8.7A30.48,30.48,0,0,0,8.7,18.8l2.6,1.4-.9,1.4L7.8,20.2A31.36,31.36,0,0,0,4,34.1H7.1v1.6H4A29.77,29.77,0,0,0,7.8,49.6l2.6-1.4.9,1.4L8.7,51A30.48,30.48,0,0,0,18.8,61.1l1.4-2.6,1.4.9L20.2,62a31.36,31.36,0,0,0,13.9,3.8V62.7h1.6v3.1A29.77,29.77,0,0,0,49.6,62l-1.4-2.6,1.4-.9L51,61.1A30.48,30.48,0,0,0,61.1,51l-2.6-1.4.9-1.4L62,49.6a34.06,34.06,0,0,0,3.8-13.9H62.7V34.1h3.1A29.45,29.45,0,0,0,62,20.2ZM35,0A35,35,0,1,1,0,35,35.17,35.17,0,0,1,35,0Z"/><polygon class="cls-1" points="90.4 31.2 61.1 60.4 41.6 40.9 50.3 32.2 61.1 42.9 81.6 22.4 90.4 31.2"/><path class="cls-4" d="M61.1,62.4,39.6,40.9,50.3,30.2,61.1,41,81.6,20.5,92.3,31.2ZM43.6,40.9,61.1,58.4,88.3,31.2l-6.8-6.8L61.1,44.9,50.3,34.1Z"/><polygon class="cls-5" points="91.2 32.4 61.5 62.1 41.6 42.2 50.5 33.4 61.5 44.3 82.3 23.5 91.2 32.4"/><path class="cls-2" d="M61.1,62.4,39.6,40.9,50.3,30.2,61.1,41,81.6,20.5,92.3,31.2ZM43.6,40.9,61.1,58.4,88.3,31.2l-6.8-6.8L61.1,44.9,50.3,34.1Z"/></g></g></svg>