<svg xmlns="http://www.w3.org/2000/svg" viewBox="0 0 87.95 80.1"><defs><style>.cls-1{fill:#fff;}.cls-2{fill:#f7931e;}.cls-3{fill:#3760ec;}.cls-4{fill:#dce5ff;}</style></defs><title>vetted-professional</title><g id="Layer_2" data-name="Layer 2"><g id="Layer_1-2" data-name="Layer 1"><path class="cls-1" d="M68.65,58.7a30.09,30.09,0,0,1-13.1,3.6V59.4H54v2.9a28.25,28.25,0,0,1-13.1-3.6l1.3-2.4-1.3-.9-1.3,2.5A29.36,29.36,0,0,1,30,48.3l2.5-1.3-.9-1.3L29.15,47a30.09,30.09,0,0,1-3.6-13.1h2.9V32.3h-2.9a28.25,28.25,0,0,1,3.6-13.1l2.4,1.3.9-1.3L30,17.9a29.36,29.36,0,0,1,9.6-9.6l1.3,2.5,1.3-.9-1.3-2.4A30.09,30.09,0,0,1,54,3.9V6.8h1.6V3.9a28.25,28.25,0,0,1,13.1,3.6l-1.3,2.4,1.3.9L70,8.3a29.36,29.36,0,0,1,9.6,9.6l-2.4,1.3.9,1.3,2.4-1.3a30.09,30.09,0,0,1,3.6,13.1h-2.9v1.6h2.9A29.34,29.34,0,0,1,80.45,47l-2.4-1.3-.9,1.3,2.4,1.3A28.44,28.44,0,0,1,70,57.9l-1.3-2.5-1.3.9Z"/><path class="cls-2" d="M77.05,33.3H54.85V10.9A22.32,22.32,0,0,1,77.05,33.3Z"/><path class="cls-3" d="M80.45,19.1l-2.4,1.3-.9-1.3,2.4-1.3A28.44,28.44,0,0,0,70,8.2l-1.3,2.5-1.3-.9,1.3-2.4a30.87,30.87,0,0,0-13.1-3.6V6.7H54V3.8a27.6,27.6,0,0,0-13.1,3.6l1.3,2.4-1.3.9-1.3-2.5A29.36,29.36,0,0,0,30,17.8l2.5,1.3-.9,1.3-2.4-1.3a30.87,30.87,0,0,0-3.6,13.1h2.9v1.6h-2.9a27.6,27.6,0,0,0,3.6,13.1l2.4-1.3.9,1.3L30,48.2a29.36,29.36,0,0,0,9.6,9.6l1.3-2.5,1.3.9-1.3,2.4A30.87,30.87,0,0,0,54,62.2V59.3h1.6v2.9a27.6,27.6,0,0,0,13.1-3.6l-1.3-2.4,1.3-.9L70,57.8a29.36,29.36,0,0,0,9.6-9.6l-2.4-1.3.9-1.3,2.4,1.3a32.19,32.19,0,0,0,3.6-13.1h-2.9V32.2h2.9A31.27,31.27,0,0,0,80.45,19.1ZM54.85,0a33.1,33.1,0,1,1-33.1,33.1A33.2,33.2,0,0,1,54.85,0Z"/><path class="cls-1" d="M43,62.5l4.2,8.6a12.74,12.74,0,0,0,1.1-3.8,11.06,11.06,0,0,0-1.1-6.1,11.09,11.09,0,0,0-10.1-6.3,1.56,1.56,0,0,1-1.3-.8l-13-26.5a1.41,1.41,0,0,1,.1-1.4,9.93,9.93,0,0,0,2.3-5.7,11.06,11.06,0,0,0-1.1-6.1A10.87,10.87,0,0,0,20,9.8a9.79,9.79,0,0,0-3.7-1.4l4.2,8.6a1.41,1.41,0,0,1-.6,1.8L10,23.6a1.41,1.41,0,0,1-1.8-.6L4,14.4a12.94,12.94,0,0,0-1.2,3.8,11.06,11.06,0,0,0,1.1,6.1A11.49,11.49,0,0,0,8,28.9a11.58,11.58,0,0,0,6,1.7,1.56,1.56,0,0,1,1.3.8l13.2,26.7a1.41,1.41,0,0,1-.1,1.4,9.93,9.93,0,0,0-2.3,5.7,11.06,11.06,0,0,0,1.1,6.1,10.87,10.87,0,0,0,4.1,4.6A9.79,9.79,0,0,0,35,77.3l-4.2-8.6a1.41,1.41,0,0,1,.6-1.8l9.9-4.9A1.2,1.2,0,0,1,43,62.5Z"/><path class="cls-4" d="M42.75,62.8,47,71.4a12.74,12.74,0,0,0,1.1-3.8A11.06,11.06,0,0,0,47,61.5a11.09,11.09,0,0,0-10.1-6.3,1.56,1.56,0,0,1-1.3-.8L22.45,27.8a1.41,1.41,0,0,1,.1-1.4,9.93,9.93,0,0,0,2.3-5.7,11.06,11.06,0,0,0-1.1-6.1,10.87,10.87,0,0,0-4.1-4.6A9.79,9.79,0,0,0,16,8.6l4.2,8.6a1.41,1.41,0,0,1-.6,1.8l-9.9,4.9a1.41,1.41,0,0,1-1.8-.6l-4.2-8.6a12.94,12.94,0,0,0-1.2,3.8,11.06,11.06,0,0,0,1.1,6.1,11.49,11.49,0,0,0,4.1,4.6,11.58,11.58,0,0,0,6,1.7,1.56,1.56,0,0,1,1.3.8l13.2,26.7a1.41,1.41,0,0,1-.1,1.4,9.93,9.93,0,0,0-2.3,5.7,11.06,11.06,0,0,0,1.1,6.1A10.87,10.87,0,0,0,31,76.2a9.79,9.79,0,0,0,3.7,1.4L30.45,69a1.41,1.41,0,0,1,.6-1.8L41,62.3A1.25,1.25,0,0,1,42.75,62.8Z"/><path class="cls-3" d="M3.85,24.3a11.06,11.06,0,0,1-1.1-6.1A12.94,12.94,0,0,1,4,14.4L8.15,23a1.32,1.32,0,0,0,1.8.6l9.9-4.9a1.41,1.41,0,0,0,.6-1.8l-4.2-8.6A16.57,16.57,0,0,1,20,9.7a10.25,10.25,0,0,1,4.1,4.6,11.06,11.06,0,0,1,1.1,6.1,10.66,10.66,0,0,1-2.3,5.7,1.41,1.41,0,0,0-.1,1.4l13.1,26.6a1.44,1.44,0,0,0,1.3.8,11.86,11.86,0,0,1,6,1.7,10.25,10.25,0,0,1,4.1,4.6,11.06,11.06,0,0,1,1.1,6.1,12.74,12.74,0,0,1-1.1,3.8l-4.2-8.6a1.32,1.32,0,0,0-1.8-.6l-9.9,4.9a1.41,1.41,0,0,0-.6,1.8L35,77.2a16.57,16.57,0,0,1-3.7-1.4,10.25,10.25,0,0,1-4.1-4.6,11.06,11.06,0,0,1-1.1-6.1,10.66,10.66,0,0,1,2.3-5.7,1.41,1.41,0,0,0,.1-1.4L15.25,31.3a1.44,1.44,0,0,0-1.3-.8,11.86,11.86,0,0,1-6-1.7A10.54,10.54,0,0,1,3.85,24.3ZM.05,17.9a14.35,14.35,0,0,0,1.4,7.5,14.14,14.14,0,0,0,5.1,5.7,13.55,13.55,0,0,0,6.6,2.1l12.3,25.2a13.93,13.93,0,0,0-2.4,6.4A13.85,13.85,0,0,0,29.45,78a13.48,13.48,0,0,0,7.3,2.1,1.7,1.7,0,0,0,.7-.1,1.32,1.32,0,0,0,.6-1.8l-4.7-9.6,7.5-3.7,4.7,9.6a1,1,0,0,0,.4.5,1.33,1.33,0,0,0,1.9-.3,14.68,14.68,0,0,0,2.9-7.2,15.12,15.12,0,0,0-1.3-7.5,13.46,13.46,0,0,0-5.1-5.7,13.89,13.89,0,0,0-6.6-2.1L25.35,27.1a13.93,13.93,0,0,0,2.4-6.4,13.85,13.85,0,0,0-6.4-13.2,13.48,13.48,0,0,0-7.3-2.1,1.7,1.7,0,0,0-.7.1,1.32,1.32,0,0,0-.6,1.8l4.7,9.6L10,20.6,5.25,11a1,1,0,0,0-.4-.5,1.33,1.33,0,0,0-1.9.3A14.91,14.91,0,0,0,.05,17.9Z"/></g></g></svg>