<svg xmlns="http://www.w3.org/2000/svg" viewBox="0 0 567.79 917.74"><defs><style>.cls-1,.cls-11,.cls-2,.cls-3,.cls-4{fill:#fff;}.cls-1,.cls-10,.cls-11,.cls-15,.cls-18,.cls-2,.cls-20,.cls-3,.cls-4,.cls-5,.cls-6,.cls-7,.cls-8,.cls-9{stroke:#3760ec;}.cls-1,.cls-11,.cls-15,.cls-18,.cls-2,.cls-3,.cls-4,.cls-5,.cls-6,.cls-7,.cls-8,.cls-9{stroke-miterlimit:10;}.cls-1,.cls-10,.cls-18{stroke-width:4px;}.cls-2{stroke-width:5px;}.cls-20,.cls-3,.cls-9{stroke-width:2.73px;}.cls-4,.cls-8{stroke-width:3px;}.cls-12,.cls-5,.cls-7{fill:#7f93f4;}.cls-5{stroke-width:2px;}.cls-14,.cls-6{fill:#dce5ff;}.cls-11,.cls-15,.cls-6,.cls-7{stroke-width:5.46px;}.cls-10,.cls-15,.cls-18,.cls-20,.cls-8,.cls-9{fill:none;}.cls-10,.cls-18,.cls-20{stroke-linecap:round;}.cls-10,.cls-20{stroke-linejoin:round;}.cls-12{opacity:0.2;}.cls-13{fill:#001a6a;opacity:0.1;}.cls-16{font-size:107.6px;}.cls-16,.cls-17,.cls-19{fill:#f7931e;}.cls-16,.cls-17{font-family:Cochin, Cochin;}.cls-17{font-size:49.41px;}</style></defs><title>artwork-3</title><g id="Layer_2" data-name="Layer 2"><g id="Layer_1-2" data-name="Layer 1"><path class="cls-1" d="M426.74,293.68c5.95-1.39,13.06-3.08,12.81-3.13V265.2c6.19,2.3,14.64,4.48,22.37,4.38a63.28,63.28,0,0,0,19.49-3.31v24.28L495,293.68l-35.51,23.61Z"/><path class="cls-2" d="M543.83,195.17a18.8,18.8,0,0,1-17.26,18.74,38.67,38.67,0,0,1-4.17,0,.39.39,0,0,1-.26-.07c-.12-.11-.06-.31,0-.47,1.89-4.37,2.38-9.57,3.71-14.15,1.55-5.33,4.26-9.73,6.7-14.72.61-1.26,3.26-1.66,4.56-1.57a5.72,5.72,0,0,1,4.11,2.2C543.4,187.83,543.74,191.82,543.83,195.17Z"/><path class="cls-2" d="M379.46,195.17a18.8,18.8,0,0,0,17.26,18.74,38.49,38.49,0,0,0,4.16,0,.39.39,0,0,0,.26-.07c.12-.11.06-.31,0-.47-1.82-4.42-3-9.92-4.26-13.72-1.66-5-5.45-10.62-7.58-15.68-.54-1.29-1.91-1.24-3.12-1a6.51,6.51,0,0,0-4.11,2.2C379.9,187.83,379.55,191.82,379.46,195.17Z"/><path class="cls-2" d="M390.8,198.61c.78,4.82,2.76,9.56,4.15,14.06a91.28,91.28,0,0,0,18.59,33.75,69.13,69.13,0,0,0,29.66,20.11,59,59,0,0,0,18.73,3.05l1.57,0h.2c.47,0,.92,0,1.38-.06s.78,0,1.17-.07c.66-.05,1.3-.1,1.95-.18l1.54-.18,1.28-.19,1.5-.25.79-.15h.05l1.33-.28,1.82-.44c.6-.15,1.21-.32,1.8-.49a66.52,66.52,0,0,0,27.83-16.48c10.11-9.76,18-22.8,22.69-37.81.39-1.26.76-2.53,1.1-3.82a84.32,84.32,0,0,0,2.23-10.71l3.4-52.48-5-13-12.33-8.66L414.9,128.62l-28.34,3.67-2.22,22.33Z"/><path class="cls-3" d="M444.41,226.78h30.13s3.54,12.4-13.73,14.17S444.41,226.78,444.41,226.78Z"/><circle class="cls-4" cx="432.6" cy="188.47" r="14.14"/><circle class="cls-5" cx="426.74" cy="191.57" r="5.03"/><circle class="cls-4" cx="489.64" cy="188.47" r="14.14"/><circle class="cls-5" cx="482.88" cy="191.57" r="5.03"/><path class="cls-1" d="M64.19,322.7s21-5.81,20.64-5.89V294.75a81.69,81.69,0,0,0,39.86.66v21.4l19.73,4.54-9.69,14L70.4,331.54Z"/><path class="cls-6" d="M359.82,341.77,345,443.71l-43.95,58,4.95,5.58,31.19-19.94,10.06,1.34L372,456.07l19.11-93.28-30.77-21.24A.32.32,0,0,0,359.82,341.77Z"/><path class="cls-6" d="M261.91,511.5,236.8,524.07l-36.12-40.79-8.74-101.8,12.85-14.7a.33.33,0,0,1,.58.17c1.24,8.75,19.51,88.92,22.08,101.88Z"/><path class="cls-1" d="M200.22,228.78a17.12,17.12,0,0,1-15.71,17.05c-.46,0-.93.06-1.4.06a18.77,18.77,0,0,1-2.14-.13h0c.44-1.17.86-2.34,1.26-3.53a82.28,82.28,0,0,0,2.79-11c1.13,1.36,2.18,2.14,3.14,2.19,2.57.15,4.58-4.8,6-17.68A17.08,17.08,0,0,1,200.22,228.78Z"/><path class="cls-1" d="M25.27,232.56A79.92,79.92,0,0,0,29,245.49a17.11,17.11,0,0,1-12.78-31.2C18.68,229.52,22.06,233.65,25.27,232.56Z"/><path class="cls-7" d="M25.27,232c-3.21,1.09-6.59-3-9.09-18.27-.25-1.52-.49-3.14-.72-4.88-3.31-25-2.2-95.66,92.56-95.66,80.29,0,59.46,28,59.46,28s33.88-3.15,27.08,70.14c-.12,1.33-.25,2.6-.39,3.79-2,17.75-5,20.44-9.15,15.5-2.72-3.28-5.91-9.91-9.56-17.75-8.54-18.34-19.61-43.26-33.13-47.11,0,0-45.45,11.47-77.53,17.1-13,2.28-26.48,10.68-30.18,30.82l0,.14C33.44,219.92,29.51,230.53,25.27,232Z"/><path class="cls-2" d="M185,230.64a82.53,82.53,0,0,1-2.79,11c-.39,1.19-.81,2.37-1.26,3.53a81.47,81.47,0,0,1-57.35,50.13l-2.05.45c-.68.14-1.37.28-2.06.4-.5.1-1,.18-1.52.26h0l-.9.14-1.7.23-1.46.17c-.58.07-1.16.13-1.75.17s-1.47.12-2.2.17l-1.34.07-1.57.05h-.22l-1.79,0A81.37,81.37,0,0,1,29,244.91,79.65,79.65,0,0,1,25.26,232c2.92-1,5.69-6.32,7.51-11.53.17-.48.33-.94.47-1.42s.29-.93.42-1.38.26-.91.37-1.35c.22-.87.41-1.7.56-2.46l0-.14c3.71-20.14,17.17-28.54,30.18-30.82,32.09-5.63,77.54-17.1,77.54-17.1a12,12,0,0,1,1.49.52h0l.59.26.41.18.08,0,.26.14.44.23.45.25.07,0,.07,0c.16.09.32.18.47.28a.09.09,0,0,0,.06,0l.55.37.08.05c.39.27.78.56,1.18.85.18.14.36.28.53.43h0l.31.26c.68.56,1.36,1.19,2,1.86.18.16.34.33.51.5a.6.6,0,0,1,.08.08l.47.5a.5.5,0,0,1,.1.11l.35.37.65.73.14.16.4.47.54.65.19.22.35.44.53.69c.08.09.15.19.22.28l.31.41q.54.71,1.05,1.44l1,1.49.32.47c.06.1.12.2.19.3s.23.33.33.5a3.16,3.16,0,0,0,.18.27c.49.77,1,1.55,1.47,2.35l0,.06c.18.27.34.54.5.81l.42.7c.18.31.37.62.55.94a0,0,0,0,1,0,0l.16.26c.21.38.42.74.64,1.12a2.58,2.58,0,0,0,.18.32c.29.53.59,1.06.88,1.61.07.12.14.24.2.37s.26.46.38.68l.51,1c.29.53.57,1.07.85,1.62.61,1.18,1.22,2.37,1.81,3.57.19.37.37.74.55,1.11.34.66.66,1.33,1,2l.24.49c.28.6.57,1.2.85,1.79.53,1.1,1,2.2,1.56,3.28l3.32,7.13C179.11,220.73,182.3,227.36,185,230.64Z"/><circle class="cls-8" cx="66.74" cy="226.67" r="12.87"/><circle class="cls-5" cx="72.32" cy="225.58" r="4.58"/><circle class="cls-8" cx="141.66" cy="226.67" r="12.87"/><circle class="cls-5" cx="148.24" cy="225.58" r="4.58"/><path class="cls-9" d="M85.46,263.11a.74.74,0,0,0-.93,1.1C89,270.74,97.47,274,105.21,274s16-3.24,20.6-9.65a.79.79,0,0,0-1-1.16,45.07,45.07,0,0,1-19.61,4.53A45.81,45.81,0,0,1,85.46,263.11Z"/><path class="cls-10" d="M127.64,200.12c18.06-5.35,32.72,7,32.72,7"/><path class="cls-10" d="M81.42,202.53c-18.07-5.35-32.73,7-32.73,7"/><path class="cls-6" d="M205.26,366.24l-1.07-1.53c-15.63-22-37.85-36.53-61.92-44.16a3.41,3.41,0,0,0-1.66-.25,3.64,3.64,0,0,0-1,.41c-21.34,11-46.2,11.77-67.67.58a6.28,6.28,0,0,0-2.27-.85,5.84,5.84,0,0,0-2.21.4A118,118,0,0,0,7.54,364V536H205.93Z"/><path class="cls-6" d="M395.89,847.47h25.69a3.88,3.88,0,0,1,3.88,3.94L424.59,911a3.9,3.9,0,0,1-3.69,3.82l-14.68.2a4.23,4.23,0,0,1-2.58-1.09l-2.52-2a3.87,3.87,0,0,0-5.24.43l-.51.56c-.71.78-1.71,2-2.76,2.07l-36.7-.2c-2.16.05-4-.51-4-2.66l-.25-16.94c-.05-2.82,1.36-5.26,3-7.56,2.52-3.56,11.47-8.83,31.88-5.76l1.14.25a3.87,3.87,0,0,0,4.69-4.27C391.11,867.91,389.4,847.85,395.89,847.47Z"/><path class="cls-6" d="M504.27,847.47H530a3.88,3.88,0,0,1,3.88,3.94L533,911a3.89,3.89,0,0,1-3.68,3.82l-14.68.2a4.23,4.23,0,0,1-2.58-1.09l-2.52-2a3.87,3.87,0,0,0-5.24.43l-.51.56c-.72.78-1.71,2-2.76,2.07l-36.7-.2c-2.16.05-4-.51-4-2.66l-.26-16.94c0-2.82,1.37-5.26,3-7.56,2.52-3.56,11.47-8.83,31.88-5.76l1.14.25a3.87,3.87,0,0,0,4.69-4.27C499.49,867.91,497.78,847.85,504.27,847.47Z"/><path class="cls-11" d="M560.22,535.24l-14,314H487.36l-29-228.83c-.2-1.2-1.93,8.78-2.16,10L435.51,849.28H379.74l-20.22-314Z"/><rect class="cls-7" x="359.68" y="509.37" width="200.7" height="25.8"/><path class="cls-11" d="M170.11,847.47H144.72a3.86,3.86,0,0,0-3.83,3.94l.86,59.58a3.88,3.88,0,0,0,3.64,3.82l14.51.2a4.15,4.15,0,0,0,2.55-1.09l2.49-2a3.8,3.8,0,0,1,5.19.43l.5.56c.7.78,1.69,2,2.73,2.07l36.27-.2c2.13.05,3.9-.51,3.93-2.66l.25-16.94c.05-2.82-1.34-5.26-2.95-7.56-2.49-3.56-11.33-8.83-31.5-5.76l-1.13.25a3.85,3.85,0,0,1-4.64-4.27C174.84,867.91,176.53,847.85,170.11,847.47Z"/><path class="cls-11" d="M63,847.47H37.6a3.86,3.86,0,0,0-3.83,3.94L34.64,911a3.87,3.87,0,0,0,3.64,3.82l14.51.2a4.13,4.13,0,0,0,2.54-1.09l2.5-2a3.79,3.79,0,0,1,5.18.43l.51.56c.7.78,1.68,2,2.72,2.07l36.27-.2c2.13.05,3.9-.51,3.93-2.66l.26-16.94c0-2.82-1.35-5.26-3-7.56-2.48-3.56-11.33-8.83-31.5-5.76l-1.13.25a3.84,3.84,0,0,1-4.63-4.27C67.72,867.91,69.41,847.85,63,847.47Z"/><path class="cls-11" d="M7.7,535.24l13.81,314h58.2l28.63-218.83c.2-1.2,1.91-11.22,2.13-10L131,849.28h55.12l20-314Z"/><path class="cls-6" d="M495,293.68c-50.08,19.05-68.25,0-68.25,0h0l-7.83,1.81s-44.81,12-59.06,46.27V509.37H560.38V338.62s-13.28-33.73-58.23-43.3L495,293.68Z"/><path class="cls-11" d="M293.44,567.63l-90.73-22.5a.18.18,0,0,1,0-.33l135-60.94a.14.14,0,0,1,.11,0l90.73,22.5a.18.18,0,0,1,0,.33l-135,60.94A.17.17,0,0,1,293.44,567.63Z"/><path class="cls-6" d="M164.36,518.58l-14.42,29.75L50.35,501a16.73,16.73,0,0,1-5.58-4.22c-7.66-8.85-20.08-24.68-37.36-54.27-6.09-27.31-6.39-53.69,0-79a.14.14,0,0,1,.27-.07c3.19,7.46,33.55,77.83,54.86,99.14S164.36,518.58,164.36,518.58Z"/><path class="cls-1" d="M159.29,529.05c2-4,4.22-4.48,5.66-3.76l14.14,7.12c2.9,3.89-1.41,6.15-3,6.81a.26.26,0,0,0,0,.48l12.23,6.16a4.81,4.81,0,0,1,2.12,2.09c4.46,8.58-2.47,12.61-6.51,14.14a5.7,5.7,0,0,1-4.61-.22l-5-2.52-23.78-12.26Z"/><path class="cls-3" d="M243,526.56l-4.88-3.15,22-11s18.44,8,16.14,11-17.68-4-17.68-4Z"/><path class="cls-6" d="M403.43,494.4l14.42,29.75,99.58-47.35a16.74,16.74,0,0,0,5.59-4.21c7.65-8.86,20.08-24.68,37.36-54.28,6.09-27.3,6.39-53.68,0-79a.15.15,0,0,0-.28-.06c-3.18,7.45-33.54,77.82-54.86,99.13S403.43,494.4,403.43,494.4Z"/><path class="cls-1" d="M408.5,504.88c-1.95-4-4.22-4.49-5.66-3.77l-14.14,7.12c-2.9,3.89,1.41,6.15,3,6.82a.26.26,0,0,1,0,.47l-12.23,6.16a4.86,4.86,0,0,0-2.12,2.09c-4.46,8.59,2.47,12.61,6.51,14.15a5.74,5.74,0,0,0,4.61-.23l5-2.51,23.78-12.27Z"/><path class="cls-7" d="M394.12,127.43c-8.55,4-6.77,26.56-11.33,32.66-3.77,5.07-11,3.54-15.91,1.23-3.93-1.86-8.57-4.78-9.78-9.25-1.27-4.65,1.73-8.92,4.35-12.46a28.88,28.88,0,0,1,15.46-10.84,29.92,29.92,0,0,1,3.74-.78c6.44-.92,13-.47,19.47.32Z"/><path class="cls-5" d="M530.2,184.3c2.8.78,5.75-2.17,7.93-13.06.22-1.08.43-2.24.63-3.49,2.88-17.84,1.92-68.33-80.77-68.33-70.06,0-51.88,20-51.88,20s-29.56-2.25-23.63,50.11c.11.95.22,1.86.34,2.71,1.73,12.67,4.39,14.6,8,11.07,2.38-2.34,5.16-7.08,8.35-12.68,7.45-13.1,17.11-30.91,28.91-33.66,0,0,39.66,8.19,67.65,12.22,11.35,1.63,23.1,7.63,26.33,22l0,.1C523.07,175.68,526.5,183.26,530.2,184.3Z"/><path class="cls-12" d="M522.07,171.33c-3-4.37-110.21-63.05-126.86-51.25"/><path class="cls-13" d="M382.79,160.09s23.95,24.52,43.95,26.45,63.16-15.82,63.16-15.82l-15.06-64.53S378.14,91,382.79,160.09Z"/><path class="cls-14" d="M518.14,170.68c-18.93,9.28-58.95-12-74.57-21.66s-42.38-19.3-42.38-19.3c-23.81-4.64-35.4,5.08-39.33,9.54,19.27-24,54.58-27.33,94.2.63C496.81,168.64,518.14,170.68,518.14,170.68Z"/><path class="cls-14" d="M361.86,139.26c-.54.67-1.06,1.35-1.57,2.05A16.75,16.75,0,0,1,361.86,139.26Z"/><path class="cls-15" d="M360.26,141.35l0,0a16.75,16.75,0,0,1,1.57-2.05"/><path class="cls-15" d="M361.86,139.26c-.54.67-1.06,1.35-1.57,2.05"/><path class="cls-15" d="M361.86,139.26c3.93-4.46,15.52-14.18,39.33-9.54,0,0,26.65,9.58,42.38,19.3s55.64,30.94,74.57,21.66c0,0-21.33-2-62.08-30.79C416.44,111.93,381.13,115.25,361.86,139.26Z"/><path class="cls-14" d="M475,74.3c67.58,7.81,64.22,90.16,64.22,90.16s-13.61,6.85-21.09,6.22-35.85-11.83-59.42-28.93-50.27-26-70.55-20C388.17,121.77,407.44,66.5,475,74.3Z"/><path class="cls-15" d="M388.17,121.77S407.44,66.5,475,74.3s64.22,90.16,64.22,90.16-13.61,6.85-21.09,6.22-35.85-11.83-59.42-28.93S408.45,115.79,388.17,121.77Z"/><text class="cls-16" transform="translate(421.7 411.55) rotate(3.72)">u </text><text class="cls-17" transform="matrix(0.98, 0.19, -0.19, 0.98, 434.86, 112.1)">u </text><line class="cls-18" x1="286.29" y1="518.75" x2="335.29" y2="531.09"/><line class="cls-18" x1="302.84" y1="511.06" x2="351.84" y2="523.39"/><line class="cls-18" x1="333.58" y1="492.78" x2="357.91" y2="498.91"/><line class="cls-18" x1="321.41" y1="498.48" x2="343.14" y2="503.95"/><line class="cls-18" x1="283.29" y1="541.65" x2="307.62" y2="547.77"/><circle class="cls-11" cx="257.34" cy="51.07" r="48.34"/><path class="cls-19" d="M257.34,51.07V18.85c17.4,0,31.9,14.5,31.9,32.22a32.22,32.22,0,0,1-62.52,11Z"/><line class="cls-20" x1="258.3" y1="2.73" x2="258.3" y2="9.18"/><line class="cls-20" x1="233.81" y1="8.85" x2="237.36" y2="14.33"/><line class="cls-20" x1="216.08" y1="26.26" x2="221.56" y2="29.48"/><line class="cls-20" x1="208.99" y1="50.11" x2="215.44" y2="50.11"/><line class="cls-20" x1="215.12" y1="74.6" x2="220.6" y2="71.38"/><line class="cls-20" x1="232.52" y1="92.65" x2="235.74" y2="86.85"/><line class="cls-20" x1="256.37" y1="99.42" x2="256.37" y2="92.97"/><line class="cls-20" x1="280.87" y1="93.62" x2="277.64" y2="87.82"/><line class="cls-20" x1="282.48" y1="9.82" x2="278.93" y2="15.3"/></g></g></svg>