<svg xmlns="http://www.w3.org/2000/svg" viewBox="0 0 892.42 862.35"><defs><style>.cls-1{fill:#fff;}.cls-2{fill:#3760ec;}.cls-3{fill:#7f93f4;}.cls-4{fill:#a5672e;}.cls-5{font-size:64.94px;}.cls-5,.cls-6,.cls-7{fill:#f7931e;}.cls-5,.cls-6{font-family:SourceSansPro-Regular, Source Sans Pro;}.cls-6{font-size:64.94px;}.cls-8{fill:#dce5ff;}</style></defs><title>artwork-1</title><g id="Layer_2" data-name="Layer 2"><g id="Need-help"><path class="cls-1" d="M160.65,190.86V281.3a10,10,0,0,1-10,10H65.44a10,10,0,0,1-10-10V164.89a10,10,0,0,1,10-10H151.3a10,10,0,0,1,10,10.21Z"/><path class="cls-2" d="M150.68,294.26H65.44a13,13,0,0,1-13-13V164.89a13,13,0,0,1,13-13H151.3a13,13,0,0,1,13,13.28l-.61,25.7v90.4A13,13,0,0,1,150.68,294.26ZM65.44,157.92a7,7,0,0,0-7,7V281.3a7,7,0,0,0,7,7h85.24a7,7,0,0,0,7-7V190.79l.61-25.73a7,7,0,0,0-7-7.14Z"/><circle class="cls-1" cx="161.27" cy="156.92" r="27.02"/><path class="cls-1" d="M141.6,402.29h15.15a10.31,10.31,0,0,1,10.31,10.3V528.32a10.32,10.32,0,0,1-10.31,10.31H72.19a10.31,10.31,0,0,1-10.31-10.31V412.59a10.3,10.3,0,0,1,10.31-10.3H141.6Z"/><path class="cls-2" d="M156.75,541.63H72.19a13.32,13.32,0,0,1-13.31-13.31V412.59a13.32,13.32,0,0,1,13.31-13.3h84.56a13.32,13.32,0,0,1,13.31,13.3V528.32A13.32,13.32,0,0,1,156.75,541.63ZM72.19,405.29a7.31,7.31,0,0,0-7.31,7.3V528.32a7.32,7.32,0,0,0,7.31,7.31h84.56a7.32,7.32,0,0,0,7.31-7.31V412.59a7.31,7.31,0,0,0-7.31-7.3Z"/><rect class="cls-1" x="94.52" y="380.38" width="40.22" height="37.51"/><path class="cls-2" d="M114.78,184.35H74.51a2,2,0,0,1,0-4h40.27a2,2,0,0,1,0,4Z"/><path class="cls-2" d="M140.08,205.55H74.51a2,2,0,1,1,0-4h65.57a2,2,0,0,1,0,4Z"/><path class="cls-2" d="M140.08,226.74H74.51a2,2,0,1,1,0-4h65.57a2,2,0,1,1,0,4Z"/><path class="cls-2" d="M140.08,247.94H74.51a2,2,0,1,1,0-4h65.57a2,2,0,0,1,0,4Z"/><path class="cls-2" d="M140.08,269.14H74.51a2,2,0,1,1,0-4h65.57a2,2,0,1,1,0,4Z"/><path class="cls-1" d="M570.28,458.76a22.21,22.21,0,0,1-20.41,22.14,18,18,0,0,1-1.81.08,23,23,0,0,1-2.77-.17h0c.57-1.51,1.12-3,1.63-4.58a105.19,105.19,0,0,0,3.63-14.31c1.46,1.76,2.83,2.78,4.08,2.84,3.33.2,5.94-6.23,7.8-23A22.19,22.19,0,0,1,570.28,458.76Z"/><path class="cls-2" d="M548.05,483a23.64,23.64,0,0,1-2.88-.17h-2.78l1-2.71c.58-1.52,1.12-3,1.61-4.51a103.19,103.19,0,0,0,3.55-14l.76-4.22,2.75,3.29c1.64,2,2.48,2.12,2.64,2.12s3.36-.05,5.71-21.18l.42-3.73,2.86,2.43A24.22,24.22,0,0,1,550,482.9C549.47,483,548.81,483,548.05,483Zm3.76-17.16a107.79,107.79,0,0,1-3,11c-.23.7-.48,1.42-.73,2.13a14.87,14.87,0,0,0,1.59-.07A20.21,20.21,0,0,0,563.9,446.2c-2,14.82-4.75,20.88-9.4,20.56A5.49,5.49,0,0,1,551.81,465.82Z"/><path class="cls-1" d="M343.1,463.67a103.39,103.39,0,0,0,4.8,16.79A22.22,22.22,0,0,1,331.3,440C334.55,459.73,338.94,465.09,343.1,463.67Z"/><path class="cls-2" d="M343.12,483a24.22,24.22,0,0,1-12.88-44.73l2.55-1.6.49,3c2.75,16.77,6,21,7.66,22a1.68,1.68,0,0,0,1.52.18l2.16-.74.44,2.25a103.11,103.11,0,0,0,4.71,16.46l.82,2.16-2.25.5A24.06,24.06,0,0,1,343.12,483Zm-13.23-39.51A20.22,20.22,0,0,0,343.12,479a20.49,20.49,0,0,0,2.07-.1,108.06,108.06,0,0,1-3.68-13,5.77,5.77,0,0,1-2.63-.84C335.1,462.76,332.15,455.7,329.89,443.47Z"/><path class="cls-3" d="M343.1,462.93c-4.16,1.41-8.55-3.94-11.8-23.73q-.48-3-.93-6.34c-4.3-32.45-2.86-124.21,120.19-124.21,104.26,0,77.21,36.4,77.21,36.4s44-4.09,35.16,91.09q-.24,2.6-.51,4.92c-2.56,23-6.53,26.54-11.88,20.12-3.53-4.25-7.67-12.87-12.41-23C527,414.32,512.66,382,495.1,377c0,0-59,14.89-100.67,22.2-16.9,3-34.38,13.87-39.19,40a1.16,1.16,0,0,1,0,.18C353.72,447.26,348.62,461,343.1,462.93Z"/><path class="cls-2" d="M554.76,467c-2.16,0-4.34-1.31-6.52-3.93-3.78-4.55-7.87-13.05-12.83-23.69L534,436.34c-10.06-21.63-23.77-51.13-39-56.27-7.29,1.83-61.44,15.26-100.07,22.05-11.52,2-31.61,9.6-36.76,37.6a2.49,2.49,0,0,1-.06.32c-1.42,7.39-6.65,23.19-14.06,25.72h0a6.63,6.63,0,0,1-5.7-.63c-2.79-1.67-6.86-6.13-10-25.46-.33-2-.65-4.18-.95-6.43-2.23-16.87-4.41-59.55,23.47-91.36,21.07-24.05,54.61-36.24,99.7-36.24,46.83,0,74.25,7.32,81.51,21.75a18.1,18.1,0,0,1,.46,15,31.68,31.68,0,0,1,17.08,9.17c14.68,14.67,20.17,43.23,16.31,84.86-.17,1.75-.33,3.42-.52,5-2.16,19.46-5.19,24.23-9.08,25.39A5.27,5.27,0,0,1,554.76,467Zm-59.61-93.18.78.23c18.13,5.16,32.2,35.42,43.5,59.74l1.42,3.05c4.61,9.9,8.69,18.41,12,22.39a6.81,6.81,0,0,0,1.83,1.7c.65-.61,2.94-3.88,4.76-20.23.18-1.55.34-3.17.5-4.87,4.58-49.33-5.32-70.68-14.42-79.91C537.11,347.43,528.4,348,528,348l-6.59.52,3.92-5.3c.19-.25,4.7-6.58,1.32-13.22-8.15-16-51.19-18.39-76.12-18.39-43.28,0-75.31,11.5-95.19,34.19-26.26,30-24.16,70.56-22,86.62.29,2.19.6,4.29.92,6.25,2.87,17.47,6.23,20.71,7.2,21.29a.69.69,0,0,0,.68.09c3.24-1.13,8.34-11.86,10.11-21.28l.06-.26c5.87-31.52,28.57-40.05,41.6-42.34,41.07-7.21,99.87-22,100.46-22.16ZM352.29,438.66a.13.13,0,0,0,0,.06A.13.13,0,0,1,352.29,438.66Z"/><path class="cls-1" d="M550.54,461.18a105,105,0,0,1-3.63,14.3c-.5,1.55-1,3.07-1.62,4.59a105.74,105.74,0,0,1-74.48,65.08c-.88.2-1.77.41-2.66.59s-1.78.36-2.68.52c-.64.13-1.31.24-2,.34h-.07l-1.16.18c-.74.11-1.47.21-2.21.3l-1.89.22c-.76.09-1.51.17-2.27.23-1,.09-1.91.15-2.87.21-.58,0-1.14.07-1.73.09s-1.35.06-2,.07H449l-2.32,0a105.68,105.68,0,0,1-98.76-68.23,103.54,103.54,0,0,1-4.79-16.78c3.78-1.31,7.38-8.22,9.74-15,.23-.62.43-1.23.62-1.84s.37-1.21.55-1.8.33-1.18.47-1.75c.29-1.13.54-2.21.73-3.2l0-.18c4.81-26.15,22.29-37.05,39.19-40,41.66-7.31,100.68-22.2,100.68-22.2a14.44,14.44,0,0,1,1.94.68h0l.77.33.52.24.1.05.35.18.57.3.58.32.09.05.1.06a6.49,6.49,0,0,1,.6.37l.08,0,.71.47.1.07c.52.35,1,.72,1.54,1.1l.7.56h0l.39.33c.89.74,1.77,1.55,2.65,2.42l.65.65a.47.47,0,0,1,.1.1l.62.65.13.14.45.49c.28.3.56.62.84.95l.19.2.52.61.7.84.24.29.45.58c.24.29.47.59.7.89l.28.36c.14.17.27.36.41.54.46.6.92,1.23,1.36,1.87s.9,1.28,1.35,1.94l.41.6c.08.13.16.26.25.39l.44.65.22.36c.64,1,1.28,2,1.91,3l.05.08c.22.35.43.7.64,1.06s.36.59.54.9.48.8.72,1.22l0,0,.2.34c.27.49.54,1,.83,1.46l.23.41c.38.69.77,1.37,1.15,2.08l.26.49c.18.29.34.59.49.89l.67,1.25c.37.69.73,1.39,1.1,2.1.79,1.53,1.58,3.08,2.35,4.63l.72,1.45c.43.86.86,1.73,1.27,2.58l.3.64c.38.78.75,1.56,1.11,2.32.69,1.44,1.37,2.86,2,4.27,1.49,3.17,2.93,6.28,4.32,9.26C542.86,448.31,547,456.93,550.54,461.18Z"/><path class="cls-2" d="M446.65,550.94a108.62,108.62,0,0,1-101.56-70.17,107,107,0,0,1-4.94-17.26l-.5-2.57,2.47-.85c1.81-.62,5.05-5,7.89-13.13.22-.61.41-1.17.59-1.75s.36-1.17.53-1.74.31-1.1.44-1.64c.27-1.06.51-2.07.69-3l0-.1c5.81-31.63,28.58-40.19,41.63-42.48,41.08-7.21,99.88-22,100.47-22.16l.77-.19.77.21q.9.26,1.71.57h.05l1.36.59.54.25.33.15.32.17.54.28.65.37.07,0,.19.11c.19.11.39.22.58.35l.19.11.75.5.16.11c.52.35,1,.72,1.55,1.11h0l1.25,1c.9.75,1.83,1.6,2.81,2.57l.46.45.14.14c.1.1.2.2.29.31l.53.55c.08.07.15.16.23.24l.38.43c.3.31.58.63.87,1,.09.09.16.18.24.27l.54.63.7.84.29.35.48.62q.35.42.69.87l.34.44.36.48c.51.66,1,1.33,1.46,2l.23.32c.38.54.76,1.1,1.14,1.65l.43.63.23.35.49.74.17.28c.69,1.07,1.34,2.11,2,3.17l.06.09.65,1.07.34.57.19.33c.26.42.52.85.76,1.29l0,.08.19.33,1,1.83c.42.75.8,1.43,1.18,2.13l.26.48c.18.31.35.63.51.95l.09.17.57,1.07c.37.68.74,1.39,1.11,2.11q1.21,2.33,2.38,4.69l.18.35.55,1.12c.42.82.85,1.71,1.27,2.58l.31.66,1.12,2.32c.68,1.43,1.36,2.86,2,4.28,1.43,3.05,2.83,6.05,4.16,8.94l.16.33c4.6,9.89,8.69,18.4,12,22.38l.89,1.07-.25,1.38a107.83,107.83,0,0,1-3.73,14.71c-.5,1.52-1,3.07-1.67,4.71a108.63,108.63,0,0,1-34.39,46.63,107.13,107.13,0,0,1-42.21,20.31c-.91.21-1.82.42-2.74.61s-1.82.37-2.75.54c-.51.09-1.06.19-1.6.27l-.22.11h-.49l-1,.15c-.77.12-1.54.23-2.3.32l-1.93.23-2.36.23c-.95.09-1.93.15-2.92.21-.59,0-1.19.08-1.81.1s-1.32.06-2,.07H449Zm2.28-6,.17,3-.07-3h.19c.66,0,1.3,0,1.95-.07l1.65-.08c.95-.06,1.87-.12,2.8-.21.77-.06,1.5-.14,2.23-.22s1.22-.13,1.82-.21,1.44-.19,2.15-.3l1.39-.21,1.71-.29,2.63-.52,2.59-.57A101.27,101.27,0,0,0,510,523a102.6,102.6,0,0,0,32.49-44c.6-1.55,1.11-3,1.58-4.44A104.06,104.06,0,0,0,547.34,462c-3.53-4.75-7.36-12.74-11.93-22.55l-.16-.34c-1.33-2.87-2.73-5.87-4.15-8.92l-2-4.24L528,423.59l-.31-.64c-.4-.83-.81-1.68-1.24-2.53-.19-.4-.36-.74-.53-1.08l-.19-.37q-1.15-2.33-2.34-4.6c-.36-.7-.71-1.38-1.08-2.06-.19-.38-.37-.71-.56-1.05l-.11-.21c-.14-.28-.28-.54-.42-.79l-.1-.17-.19-.36-1.13-2-1.08-1.9-.19-.2-.15-.38c-.18-.32-.37-.64-.56-1l-.22-.37c-.1-.17-.19-.33-.3-.49-.22-.37-.42-.71-.63-1l-.08-.13c-.61-1-1.23-2-1.86-3l-.26-.41c-.1-.17-.21-.33-.33-.5a5.54,5.54,0,0,1-.33-.51c-.09-.14-.21-.31-.34-.49-.39-.58-.76-1.1-1.12-1.62l-.23-.33c-.42-.59-.84-1.18-1.28-1.76l-.4-.53-.22-.27-.07-.1-.66-.84-.46-.59-.13-.15-.08-.09c-.25-.31-.45-.56-.66-.8l-.68-.79-.79-.88-1.47-1.55c-.12-.12-.23-.24-.36-.36-.9-.88-1.7-1.62-2.49-2.27l-.39-.33-.64-.5c-.42-.31-.88-.66-1.35-1l-1.05-.69-.23-.13-.2-.12-.08,0-.44-.25-.57-.3-.18-.09-1.35-.6q-.4-.18-.84-.33c-7.29,1.83-61.44,15.26-100.08,22.05-11.52,2-31.61,9.6-36.76,37.6l0,.13c-.23,1.17-.49,2.3-.78,3.46-.15.58-.32,1.2-.5,1.83s-.37,1.24-.57,1.87-.42,1.3-.65,2c-2,5.59-5,12.39-9.19,15.49a100.38,100.38,0,0,0,4.22,14.19,102.45,102.45,0,0,0,95.95,66.29Z"/><path class="cls-4" d="M548.12,355.08l0,.07h.11Z"/><path class="cls-2" d="M547,355.74l1-1.38.47.38-.32.29h0l.37-.25.76.78Zm1.14-.62.35.25Z"/><path class="cls-2" d="M397,474.74A18.72,18.72,0,1,1,415.67,456,18.74,18.74,0,0,1,397,474.74Zm0-33.43A14.72,14.72,0,1,0,411.67,456,14.73,14.73,0,0,0,397,441.31Z"/><circle class="cls-3" cx="401.6" cy="449.41" r="5.94"/><path class="cls-2" d="M401.6,456.36a6.95,6.95,0,1,1,6.94-6.95A7,7,0,0,1,401.6,456.36Zm0-11.89a4.95,4.95,0,1,0,4.94,4.94A4.94,4.94,0,0,0,401.6,444.47Z"/><path class="cls-2" d="M494.24,474.74A18.72,18.72,0,1,1,513,456,18.74,18.74,0,0,1,494.24,474.74Zm0-33.43A14.72,14.72,0,1,0,509,456,14.73,14.73,0,0,0,494.24,441.31Z"/><circle class="cls-3" cx="500.18" cy="449.41" r="5.94"/><path class="cls-2" d="M500.18,456.36a6.95,6.95,0,1,1,6.94-6.95A7,7,0,0,1,500.18,456.36Zm0-11.89a4.95,4.95,0,1,0,4.94,4.94A5,5,0,0,0,500.18,444.47Z"/><path class="cls-2" d="M473.19,518a3,3,0,0,1-1.3-.3h0a58.49,58.49,0,0,0-25.07-5.84,57.77,57.77,0,0,0-24.88,5.74,3,3,0,0,1-3.79-4.49c6-8.32,16.94-13.49,28.67-13.49,9.38,0,21.88,3.6,28.8,13.71a3,3,0,0,1-2.43,4.67Zm-26.37-10.14a61.94,61.94,0,0,1,22.77,4.47c-5.44-5.39-13.93-8.71-22.77-8.71s-17.18,3.24-22.7,8.66A61.42,61.42,0,0,1,446.82,507.85Z"/><path class="cls-2" d="M376.39,435.84a34.9,34.9,0,0,1-7-.72,2,2,0,1,1,.8-3.92c22.58,4.63,38.78-17.47,38.94-17.7a2,2,0,0,1,3.25,2.34,56.81,56.81,0,0,1-11.87,11.55C392.77,433,384.56,435.84,376.39,435.84Z"/><path class="cls-2" d="M518.12,435.84c-8.17,0-16.38-2.86-24.07-8.45a57,57,0,0,1-11.88-11.55,2,2,0,0,1,3.25-2.34c.16.23,16.37,22.33,38.94,17.7a2,2,0,0,1,.81,3.92A35,35,0,0,1,518.12,435.84Z"/><text class="cls-5" transform="matrix(0.58, 0.81, -0.81, 0.58, 561.28, 335.39)">?</text><text class="cls-6" transform="translate(299.86 359.29) rotate(-32.34)">?</text><path class="cls-2" d="M467.69,288.33a2.42,2.42,0,0,1-.47,0c-22.45-3.52-47.9-7.51-68.68-16.28-14.08-5.95-28-15.75-25-25.42,1.86-5.87,9.33-9.9,24-12.87-1.36-.88-2.61-1.78-3.76-2.68-6.7-5.26-10.22-11-10.17-16.75,0-4.42,2.24-8.4,6.36-11.52,4.88-3.69,12.66-6.31,22.24-7.67a18.31,18.31,0,0,1,6.09-4.57c9-4.43,25-6,43.75-4.34,14.83,1.31,31.52,4.55,51,9.89a3,3,0,1,1-1.59,5.79c-19.14-5.25-35.48-8.42-49.95-9.71-14.32-1.27-27.11-.55-35.65,1.91q4.32-.07,8.88.14A196.08,196.08,0,0,1,491.65,206c8.15,3,14,6,17.81,8.91,3.6,2.78,5.53,5.79,5.57,8.7a6.57,6.57,0,0,1-2.52,5.22C508.72,232,501,233,486.68,232.31A226.59,226.59,0,0,1,450.49,228c-13.4-2.86-25.14-7.36-32.2-12.36-7.59-5.37-9-10.58-8.73-14.06-6.88,1.27-12.43,3.29-15.92,5.93-2.62,2-4,4.27-4,6.8,0,3.71,2.77,8,7.88,12a61.82,61.82,0,0,0,9.19,5.82,213.77,213.77,0,0,1,51.11-1.61c22.4,2,44.47,8,59,16,3.63,2,7,4.28,6.74,7.56-.32,4.8-7.33,5.38-10.32,5.63-12.92,1.06-28.54-1-40.7-2.87-17.41-2.71-31.16-5.68-43.24-9.32a150.52,150.52,0,0,1-23.62-9.16l-2.71.44c-18.12,3.11-22.92,6.93-23.75,9.59-1.23,3.88,6.52,11.71,21.6,18.08C421,275,446,278.9,468.15,282.37a3,3,0,0,1-.46,6ZM417,236.87c4.32,1.75,9.05,3.4,14.08,4.92,11.81,3.56,25.3,6.46,42.44,9.13,11.83,1.84,27,3.83,39.27,2.82a25.93,25.93,0,0,0,3.58-.51c-.56-.38-1.32-.85-2.39-1.44-13.87-7.6-35.07-13.31-56.7-15.28A205.64,205.64,0,0,0,417,236.87Zm-1.19-36.17a4.77,4.77,0,0,0-.27,1.22c-.22,2.73,2,5.88,6.2,8.87,6.43,4.54,17.36,8.69,30,11.38A220.63,220.63,0,0,0,487,226.32c14.95.74,20.07-.73,21.72-2.09.34-.28.34-.41.33-.49,0-.54-.69-2.07-3.24-4-3.34-2.59-8.66-5.22-16.24-8a190.41,190.41,0,0,0-55-11.46A122.11,122.11,0,0,0,415.82,200.7Z"/><polygon class="cls-7" points="391.02 287.65 382.81 285.7 376.55 291.36 375.87 282.95 368.55 278.75 376.34 275.5 378.07 267.25 383.57 273.64 391.96 272.75 387.57 279.95 391.02 287.65"/><polygon class="cls-7" points="370.06 192.95 369.43 197.29 362.96 198.67 370.06 200.48 367.52 205.56 372.4 202.6 377.91 203.02 373.88 199.31 377.91 195.39 372.08 196.02 370.06 192.95"/><polygon class="cls-7" points="541.81 193.46 535.99 200.15 523.5 195.43 533.59 206.24 523.72 212.1 535.24 212.39 544.14 219.13 541.35 208.43 552.47 206.16 541.88 200.88 541.81 193.46"/><polygon class="cls-7" points="494.21 267.02 488.7 273.82 480.81 272.38 487.02 278.93 479.89 284.82 489.62 284.12 496.58 289.28 494.81 281.53 503.22 279.31 494.81 275.03 494.21 267.02"/><path class="cls-1" d="M97.22,680.3H23.48a14.42,14.42,0,0,1-10.66-4.72c-7.37-8.07-18.46-25,1.38-39.34a12.25,12.25,0,0,1,7.16-2.31H55.24a1,1,0,0,0,.79-1.65c-3-3.75-9-13,1.44-18.23h40a15.54,15.54,0,0,1,10.87,4.44l40.46,39.63-46.87,26Z"/><path class="cls-2" d="M101.64,687.77l-5.49-4.47H23.47a17.52,17.52,0,0,1-12.87-5.69c-5.35-5.87-11.52-15-10.48-25.06.72-7.06,4.87-13.36,12.32-18.74a15.12,15.12,0,0,1,8.92-2.88H51.41c-1.85-3.06-3.46-7.1-2.58-11.14.77-3.55,3.23-6.38,7.3-8.42l.63-.32H97.5a18.4,18.4,0,0,1,13,5.3l43.33,42.44ZM21.36,636.93A9.29,9.29,0,0,0,16,638.68c-6,4.33-9.32,9.2-9.87,14.48-.85,8.29,5.24,16.34,9,20.4a11.47,11.47,0,0,0,8.44,3.74H98.29l4,3.25,41.58-23.1-37.59-36.82a12.49,12.49,0,0,0-8.77-3.58H58.21c-2,1.13-3.18,2.45-3.52,4-.74,3.42,2.32,7.67,3.67,9.34a4,4,0,0,1-3.12,6.53Z"/><path class="cls-8" d="M589.27,639.26c21.87,30.21,24,44.9,47.91,79.27,25.62,36.75,40.84,25.05,45.44,22,9.77-6.41,60.57-80.77,60.57-80.77l47.11,26.92s-51,83.91-87.49,114.42c-14.59,12.18-20.8,18.79-40.63,20.52C638.23,823.74,589,765.21,589,765.21l-.06.11v81.51a12.52,12.52,0,0,1-12.53,12.52H315a12.52,12.52,0,0,1-12.53-12.52V765.32l-.2-.11S254,821.66,230.07,819.57c-19.82-1.72-26-8.33-40.62-20.51C152.92,768.55,102,684.64,102,684.64l47.11-26.92s50.8,74.36,60.57,80.76c4.6,3,19.82,14.72,45.43-22a447.09,447.09,0,0,0,24.35-39.51c7.72-14,15.12-28,25.18-40.55,22-27.44,52.61-46.37,86.22-56.09a9.08,9.08,0,0,1,3.17-.51,9.71,9.71,0,0,1,3.28,1.1c30.91,14.52,66.7,13.47,97.43-.76a5.7,5.7,0,0,1,1.48-.53,5.77,5.77,0,0,1,2.39.32c34.66,9.91,66.64,28.81,89.15,57.35.53.66,1,1.32,1.55,2"/><path class="cls-2" d="M576.42,862.35H315a15.54,15.54,0,0,1-15.53-15.52V772.89c-12.94,14.23-47.32,49.73-68.19,49.73q-.76,0-1.5-.06c-19.12-1.66-26.53-7.92-38.81-18.28l-3.47-2.92c-36.49-30.48-86-111.72-88.14-115.16l-1.6-2.63L150,653.74l1.57,2.29c20.28,29.69,52.93,75.48,59.74,80l.43.28c2.44,1.63,6.52,4.34,12.81,3.06,8.47-1.73,17.92-10,28.08-24.58a442,442,0,0,0,24.18-39.25l2.19-4c6.89-12.52,14-25.46,23.27-37,21.65-27,52-46.75,87.73-57.09a11.89,11.89,0,0,1,4.25-.62,12.19,12.19,0,0,1,4.22,1.33l.09,0c29.41,13.82,64,13.54,94.9-.76a7.1,7.1,0,0,1,6-.37c37.7,10.78,69.05,31,90.68,58.37.53.67,1.06,1.35,1.58,2l0,.06c11.12,15.36,17.14,26.66,23.5,38.63a357.38,357.38,0,0,0,24.44,40.69c10.17,14.58,19.62,22.85,28.09,24.58,6.29,1.29,10.37-1.43,12.81-3l.43-.29c6.81-4.46,39.46-50.26,59.74-79.95l1.56-2.29,52.2,29.83-1.6,2.63c-2.1,3.45-51.65,84.69-88.14,115.16-1.21,1-2.37,2-3.47,2.93C689,816.73,681.56,823,662.44,824.64c-10.82,1-26.93-8.56-47.88-28.24-9.29-8.72-17.55-17.62-22.61-23.27v73.7A15.54,15.54,0,0,1,576.42,862.35Zm-274.8-101,3.88,2.18v83.26a9.54,9.54,0,0,0,9.53,9.52H576.42a9.53,9.53,0,0,0,9.53-9.52V764.57l2.51-4.67,2.85,3.38c13.41,16,52.22,57,70.61,55.39,17.23-1.5,23.32-6.64,35.47-16.89l3.49-2.94C733,772,777.17,702.21,786.12,687.79l-42-24c-9.65,14.06-50.52,73.19-59.84,79.3l-.4.26c-2.79,1.86-8.59,5.73-17.33,3.94-10-2-20.73-11.14-31.81-27A359.88,359.88,0,0,1,609.91,679c-6.27-11.77-12.18-22.89-23-37.9-.49-.64-1-1.29-1.49-1.92-20.84-26.42-51.14-45.89-87.62-56.32a1.58,1.58,0,0,0-1.79,0c-32.52,15-68.95,15.33-100,.76l-.09-.05a7.54,7.54,0,0,0-2.14-.78,7.07,7.07,0,0,0-2.11.4c-34.55,10-63.84,29-84.71,55.08C298,649.42,291,662.13,284.23,674.42l-2.19,4a446.35,446.35,0,0,1-24.51,39.78c-11.07,15.88-21.77,25-31.8,27-8.73,1.78-14.54-2.08-17.33-3.94L208,741c-9.32-6.11-50.19-65.23-59.84-79.29l-42,24c9,14.42,53.12,84.22,85.23,111q1.83,1.51,3.5,2.94c12.14,10.24,18.24,15.38,35.46,16.88,18.34,1.61,56.54-37.94,69.69-53.32Z"/><path class="cls-1" d="M795.2,682.38H869a14.44,14.44,0,0,0,10.65-4.71c7.37-8.07,18.46-25-1.37-39.34a12.24,12.24,0,0,0-7.17-2.32H836.45a.66.66,0,0,1-.51-1.09c2.8-3.3,10-13.31-1-18.78h-40a15.55,15.55,0,0,0-10.87,4.43L743.59,660.2l46.88,26Z"/><path class="cls-2" d="M790.79,689.85l-52.17-29L782,618.43a18.43,18.43,0,0,1,13-5.29h40.74l.63.31c4.13,2.07,6.59,4.94,7.33,8.55.81,4-.73,7.94-2.6,11h30a15.4,15.4,0,0,1,8.92,2.88c7.45,5.38,11.6,11.68,12.33,18.74,1,10.09-5.13,19.19-10.49,25.06A17.48,17.48,0,0,1,869,685.38H796.27Zm-42.23-30.32,41.59,23.1,4-3.25H869a11.46,11.46,0,0,0,8.44-3.74c3.71-4.06,9.8-12.11,9-20.39-.55-5.29-3.87-10.16-9.87-14.49a9.29,9.29,0,0,0-5.41-1.75H836.45a3.66,3.66,0,0,1-2.8-6c1.15-1.35,4.85-6.06,4.09-9.78-.32-1.58-1.48-2.92-3.53-4.06H794.92a12.46,12.46,0,0,0-8.77,3.58Z"/><path class="cls-1" d="M845.58,136.25H727a6,6,0,0,0-6,6V294.93a6,6,0,0,0,6,6H827a6,6,0,0,0,6-6l.22-106.14V148.61A12.37,12.37,0,0,1,845.58,136.25Z"/><path class="cls-2" d="M827,303.94H727a9,9,0,0,1-9-9V142.27a9,9,0,0,1,9-9H845.58v6a9.37,9.37,0,0,0-9.36,9.36v40.18L836,294.93A9,9,0,0,1,827,303.94ZM727,139.25a3,3,0,0,0-3,3V294.93a3,3,0,0,0,3,3H827a3,3,0,0,0,3-3l.22-106.15V148.61a15.29,15.29,0,0,1,3.19-9.36Z"/><path class="cls-8" d="M845,136.28a12.36,12.36,0,0,0-11.78,12.33v40.18H860v-37A15.56,15.56,0,0,0,845,136.28Z"/><path class="cls-2" d="M863,191.79H830.22V148.61a15.32,15.32,0,0,1,14.64-15.32h.25A18.5,18.5,0,0,1,863,151.83Zm-26.78-6H857v-34a12.52,12.52,0,0,0-12-12.54,9.33,9.33,0,0,0-8.8,9.32Z"/><path class="cls-2" d="M845.05,137.28h-.35l-.28,0v-2h1.16v2l-.3,0Z"/><path class="cls-2" d="M809.13,163.5H741a2,2,0,0,1,0-4h68.1a2,2,0,0,1,0,4Z"/><path class="cls-2" d="M809.82,187.18h-68.1a2,2,0,0,1,0-4h68.1a2,2,0,0,1,0,4Z"/><path class="cls-2" d="M809.48,210.87h-68.1a2,2,0,0,1,0-4h68.1a2,2,0,0,1,0,4Z"/><path class="cls-2" d="M808.1,234.55H740a2,2,0,0,1,0-4h68.1a2,2,0,0,1,0,4Z"/><path class="cls-2" d="M808.79,258.23h-68.1a2,2,0,1,1,0-4h68.1a2,2,0,0,1,0,4Z"/><path class="cls-2" d="M808.44,281.92H740.35a2,2,0,0,1,0-4h68.09a2,2,0,0,1,0,4Z"/><circle class="cls-1" cx="455.85" cy="60.46" r="57.46"/><path class="cls-2" d="M455.85,120.92a60.46,60.46,0,1,1,60.46-60.46A60.53,60.53,0,0,1,455.85,120.92ZM455.85,6a54.46,54.46,0,1,0,54.46,54.46A54.52,54.52,0,0,0,455.85,6Z"/><path class="cls-7" d="M455.8,60.46l.1-38.09a38.09,38.09,0,1,1-36,50.81Z"/><path class="cls-2" d="M456.89,12.75a2,2,0,0,1-2-2V3a2,2,0,0,1,4,0v7.75A2,2,0,0,1,456.89,12.75Z"/><path class="cls-2" d="M431.89,18.86a2,2,0,0,1-1.73-1l-3.88-6.71a2,2,0,0,1,3.47-2l3.87,6.71a2,2,0,0,1-1.73,3Z"/><path class="cls-2" d="M413.29,36.66a2,2,0,0,1-1-.27l-6.71-3.88a2,2,0,1,1,2-3.46l6.71,3.87a2,2,0,0,1-1,3.74Z"/><path class="cls-2" d="M406.09,61.37h-7.75a2,2,0,0,1,0-4h7.75a2,2,0,0,1,0,4Z"/><path class="cls-2" d="M405.5,90.24a2,2,0,0,1-1-3.73l6.71-3.87a2,2,0,1,1,2,3.46L406.49,90A2,2,0,0,1,405.5,90.24Z"/><path class="cls-2" d="M426.12,111.67a1.93,1.93,0,0,1-1-.27,2,2,0,0,1-.73-2.73l3.87-6.71a2,2,0,0,1,3.47,2l-3.87,6.71A2,2,0,0,1,426.12,111.67Z"/><path class="cls-2" d="M454.71,119.92a2,2,0,0,1-2-2v-7.75a2,2,0,0,1,4,0v7.75A2,2,0,0,1,454.71,119.92Z"/><path class="cls-2" d="M483.58,112.77a2,2,0,0,1-1.73-1l-3.87-6.7a2,2,0,1,1,3.46-2l3.87,6.7a2,2,0,0,1-1.73,3Z"/><path class="cls-2" d="M505,92.13a2,2,0,0,1-1-.26L497.3,88a2,2,0,0,1,2-3.46L506,88.4a2,2,0,0,1-1,3.73Z"/><path class="cls-2" d="M513.26,63.55h-7.75a2,2,0,0,1,0-4h7.75a2,2,0,0,1,0,4Z"/><path class="cls-2" d="M499.4,38.55a2,2,0,0,1-1.74-1,2,2,0,0,1,.74-2.73l6.71-3.88a2,2,0,0,1,2,3.47l-6.71,3.87A2,2,0,0,1,499.4,38.55Z"/><path class="cls-2" d="M481.6,20a2,2,0,0,1-1.73-3l3.87-6.71a2,2,0,0,1,3.47,2L483.33,19A2,2,0,0,1,481.6,20Z"/><rect class="cls-7" x="75.72" y="438.64" width="16.88" height="16.88"/><rect class="cls-7" x="75.72" y="468.43" width="16.88" height="16.88"/><rect class="cls-7" x="75.72" y="498.22" width="16.88" height="16.88"/><path class="cls-1" d="M89,453a1,1,0,0,1-.71-.29l-9.74-9.74A1,1,0,0,1,80,441.51l9.74,9.74a1,1,0,0,1,0,1.41A1,1,0,0,1,89,453Z"/><path class="cls-1" d="M79.29,453a1,1,0,0,1-.71-.29,1,1,0,0,1,0-1.41l9.74-9.74a1,1,0,0,1,1.41,1.41L80,452.66A1,1,0,0,1,79.29,453Z"/><path class="cls-1" d="M82.12,481.81a1,1,0,0,1-.7-.29l-3.81-3.81a1,1,0,0,1,0-1.42,1,1,0,0,1,1.41,0l3.81,3.81a1,1,0,0,1-.71,1.71Z"/><path class="cls-1" d="M82.12,481.81a1,1,0,0,1-.7-1.71l7.87-7.87a1,1,0,0,1,1.42,0,1,1,0,0,1,0,1.41l-7.88,7.88A1,1,0,0,1,82.12,481.81Z"/><path class="cls-1" d="M89,512.53a1,1,0,0,1-.71-.29l-9.74-9.74a1,1,0,0,1,0-1.42,1,1,0,0,1,1.41,0l9.74,9.74a1,1,0,0,1-.7,1.71Z"/><path class="cls-1" d="M79.29,512.53a1,1,0,0,1-.71-.29,1,1,0,0,1,0-1.42l9.74-9.74a1,1,0,0,1,1.41,0,1,1,0,0,1,0,1.42L80,512.24A1,1,0,0,1,79.29,512.53Z"/><path class="cls-7" d="M126.27,394h-4.15v-.09a7.23,7.23,0,1,0-14.46,0V394h-5a4,4,0,0,0-4,4v13.33h31.65V398A4,4,0,0,0,126.27,394Zm-11.38,3.91a4,4,0,1,1,4-4A4,4,0,0,1,114.89,397.93Z"/><path class="cls-2" d="M153.63,449.08H103a2,2,0,1,1,0-4h50.64a2,2,0,1,1,0,4Z"/><path class="cls-2" d="M153.63,479H103a2,2,0,1,1,0-4h50.64a2,2,0,0,1,0,4Z"/><path class="cls-2" d="M153.63,508.81H103a2,2,0,1,1,0-4h50.64a2,2,0,1,1,0,4Z"/><path class="cls-1" d="M393.53,579.79s26.05-6,25.52-6.1V545a105.9,105.9,0,0,0,51.75.87v27.79l25.62,5.89S447.72,608.3,393.53,579.79Z"/><path class="cls-2" d="M444.22,595.38a111,111,0,0,1-52.09-12.93L385,578.68l7.87-1.81c7.38-1.7,18.62-4.32,23.2-5.46v-30.3l3.78,1a103,103,0,0,0,50.28.84l3.69-.87V571.3l30.63,7-6.49,3.82c-.51.31-12.84,7.49-32.08,11.16A115.66,115.66,0,0,1,444.22,595.38Zm-41.67-14.6c36.88,15.91,70.37,5.84,84.82-.2l-19.57-4.5V549.62a109.74,109.74,0,0,1-45.75-.74v24.76c0,2.4-2.07,3-3.33,3.28-.71.18-1.73.44-2.94.73-2.4.59-5.6,1.34-8.8,2.09Z"/><path class="cls-1" d="M829.6,402.48v85.73a2.37,2.37,0,0,1-2.37,2.37H712.4a2.37,2.37,0,0,1-2.37-2.37V404.85a2.37,2.37,0,0,1,2.37-2.37H829.6Z"/><path class="cls-2" d="M827.23,493.58H712.4a5.38,5.38,0,0,1-5.37-5.37V404.85a5.38,5.38,0,0,1,5.37-5.37H832.6v88.73A5.38,5.38,0,0,1,827.23,493.58Zm-114.2-6H826.6v-82.1H713Z"/><path class="cls-2" d="M758.8,460.89H724.19a2,2,0,0,1,0-4H758.8a2,2,0,0,1,0,4Z"/><path class="cls-2" d="M816.23,476.91h-92a2,2,0,0,1,0-4h92a2,2,0,0,1,0,4Z"/><path class="cls-4" d="M694.85,777.09l-.05.07h.11Z"/><polygon class="cls-2" points="693.74 777.74 694.75 776.4 695.24 776.78 695.98 777.55 693.74 777.74"/><path class="cls-1" d="M170.6,166.31a1,1,0,0,1-.71-.29l-18.18-18.18a1,1,0,0,1,0-1.41,1,1,0,0,1,1.41,0L171.3,164.6a1,1,0,0,1-.7,1.71Z"/><ellipse class="cls-8" cx="740.26" cy="417.11" rx="6.3" ry="6.49"/><path class="cls-2" d="M740.26,425.61a8.5,8.5,0,1,1,8.3-8.5A8.41,8.41,0,0,1,740.26,425.61Zm0-13a4.5,4.5,0,1,0,4.3,4.49A4.4,4.4,0,0,0,740.26,412.62Z"/><path class="cls-8" d="M747.35,425.12l-6.28,6.28a1.15,1.15,0,0,1-1.61,0l-6.29-6.29a1.15,1.15,0,0,0-1.41-.17,15.8,15.8,0,0,0-7.29,13.31v1.35a1.15,1.15,0,0,0,1.14,1.15h29.31a1.15,1.15,0,0,0,1.14-1.15v-1.35a15.78,15.78,0,0,0-7.3-13.31A1.14,1.14,0,0,0,747.35,425.12Z"/><path class="cls-8" d="M790.72,430.25a4.24,4.24,0,0,0-4.35,4.11V449a4.24,4.24,0,0,0,4.35,4.12h10.17V430.25Z"/><path class="cls-2" d="M802.89,455.16H790.72a6.25,6.25,0,0,1-6.35-6.12V434.36a6.24,6.24,0,0,1,6.35-6.11h12.17Zm-12.17-22.91a2.25,2.25,0,0,0-2.35,2.11V449a2.25,2.25,0,0,0,2.35,2.12h8.17V432.25Z"/><path class="cls-8" d="M800.89,453.16H813a4,4,0,0,0,3.94-4.12v-8.1h-16Z"/><path class="cls-2" d="M813,455.16h-14.1V438.94h20V449A6,6,0,0,1,813,455.16Zm-10.1-4H813a2,2,0,0,0,1.94-2.12v-6.1h-12Z"/><path class="cls-8" d="M813,430.25h-12.1v10.69h16v-6.58A4,4,0,0,0,813,430.25Z"/><path class="cls-2" d="M818.93,442.94h-20V428.25H813a6,6,0,0,1,5.94,6.11Zm-16-4h12v-4.58a2,2,0,0,0-1.94-2.11h-10.1Z"/><path class="cls-7" d="M161.27,135.5a21.43,21.43,0,1,0,21.42,21.42A21.36,21.36,0,0,0,161.27,135.5Zm3.11,21.81,7.31,7.31a1,1,0,0,1,.29.68,1.07,1.07,0,0,1-.29.68l-1.37,1.36a1,1,0,0,1-.68.3.88.88,0,0,1-.68-.3l-7.3-7.3a.47.47,0,0,0-.69,0l-7.3,7.3a1,1,0,0,1-.68.3.87.87,0,0,1-.68-.3L150.94,166a1.07,1.07,0,0,1-.29-.68,1,1,0,0,1,.29-.68l7.31-7.31a.48.48,0,0,0,0-.68l-7.31-7.3a1,1,0,0,1,0-1.37l1.37-1.36a1,1,0,0,1,.68-.29,1.07,1.07,0,0,1,.68.29l7.3,7.3a.47.47,0,0,0,.69,0l7.3-7.3a1.09,1.09,0,0,1,.68-.29.89.89,0,0,1,.68.29l1.37,1.36a1,1,0,0,1,0,1.37l-7.31,7.3C164.19,156.73,164.19,157.12,164.38,157.31Z"/><circle class="cls-1" cx="829.6" cy="402.48" r="27.02"/><path class="cls-7" d="M829.6,381.05A21.43,21.43,0,1,0,851,402.48,21.36,21.36,0,0,0,829.6,381.05Zm3.12,21.81,7.3,7.31a1,1,0,0,1,.3.68,1,1,0,0,1-.3.68l-1.36,1.37a1.07,1.07,0,0,1-.68.29.89.89,0,0,1-.68-.29L830,405.59a.48.48,0,0,0-.68,0L822,412.9a1.09,1.09,0,0,1-.68.29.91.91,0,0,1-.69-.29l-1.36-1.37a1,1,0,0,1-.29-.68,1.07,1.07,0,0,1,.29-.68l7.3-7.31a.46.46,0,0,0,0-.68l-7.3-7.3a1.09,1.09,0,0,1-.29-.68,1,1,0,0,1,.29-.68l1.36-1.37a1,1,0,0,1,1.37,0l7.3,7.31a.48.48,0,0,0,.68,0l7.31-7.31a1,1,0,0,1,.68-.29.89.89,0,0,1,.68.29l1.36,1.37a1,1,0,0,1,.3.68,1.05,1.05,0,0,1-.3.68l-7.3,7.3C832.53,402.28,832.53,402.67,832.72,402.86Z"/></g></g></svg>