<svg xmlns="http://www.w3.org/2000/svg" viewBox="0 0 781.41 653.48"><defs><style>.cls-1{fill:#fff;}.cls-2{fill:#3760ec;}.cls-3{fill:#dce5ff;}.cls-4{fill:#7f93f4;}.cls-5{fill:#f7931e;}</style></defs><title>artwork-4</title><g id="Layer_2" data-name="Layer 2"><g id="Layer_3" data-name="Layer 3"><polygon class="cls-1" points="470.27 282.14 447.65 279.66 442.27 304.14 465.27 314.14 470.27 282.14"/><path class="cls-2" d="M467.63,318.44l-28.82-12.53,6.49-29.53,28.42,3.12Zm-21.9-16.07,17.18,7.47,3.91-25.06L450,282.93Z"/><path class="cls-3" d="M480.47,417a2.06,2.06,0,0,0,2-.81c5.66-7.42,24.35-39,48.79-58.66a1.35,1.35,0,0,0,.23-1.85c-4.83-6.63-36.48-36.44-66.18-38.3l6-38.27s80.54,14.08,99.13,70.63a10.34,10.34,0,0,1,.16,6c-2.83,10-19.6,44.9-85.4,121.7a12.6,12.6,0,0,0-3,7.9L478.5,640.77a9.79,9.79,0,0,1-9.62,9.71H268.66a9.79,9.79,0,0,1-9.62-9.71l-3.66-155.39a12.6,12.6,0,0,0-3-7.9c-65.8-76.8-79.57-111.66-82.4-121.7a10.34,10.34,0,0,1,.16-6c18.59-56.55,99.13-70.63,99.13-70.63l6,38.27c-29.7,1.86-61.35,31.67-66.18,38.3a1.35,1.35,0,0,0,.23,1.85c24.44,19.64,43.13,51.24,48.79,58.66a2.06,2.06,0,0,0,2,.81c17.14-2.4,71,10.75,71,10.75s20.05-4.78,19.65-4.86V400.09a79,79,0,0,0,39.85.69v22.14l19.74,4.14S463.33,414.63,480.47,417Z"/><path class="cls-2" d="M468.88,653.48H268.66A12.71,12.71,0,0,1,256,640.84l-3.66-155.39a9.59,9.59,0,0,0-2.28-6c-65.1-76-79.74-111.21-83-122.84a13.26,13.26,0,0,1,.2-7.76c7.86-23.92,28-44.08,58.11-58.29a187.85,187.85,0,0,1,43.35-14.35l3-.53,7,44.54-3.28.21c-27.06,1.69-56.12,27.83-63,35.86,19.47,16.09,35,39.06,43.43,51.52,1.79,2.66,3.25,4.81,4.28,6.2,17.09-2,64.21,9.11,70.84,10.71,5.39-1.29,13-3.14,16.65-4.05V396.14l3.81,1.06a76.25,76.25,0,0,0,38.33.67l3.72-.91v23.52l16.7,3.51c6.36-1.47,53-12,70.11-10,1-1.39,2.49-3.54,4.28-6.2,8.43-12.46,24-35.43,43.43-51.52-6.87-8-35.92-34.17-63-35.86l-3.28-.21,7-44.54,3,.53a188,188,0,0,1,43.35,14.35c30.15,14.21,50.24,34.37,58.11,58.29a13.26,13.26,0,0,1,.2,7.76c-1.58,5.59-13.11,37.75-86,122.84a9.59,9.59,0,0,0-2.28,6L481.5,640.84A12.71,12.71,0,0,1,468.88,653.48ZM266.79,282.71c-14.58,3.24-78,19.92-93.8,68a7.21,7.21,0,0,0-.12,4.26c9.76,34.68,65.07,101,81.79,120.56a15.66,15.66,0,0,1,3.72,9.77L262,640.7a6.74,6.74,0,0,0,6.62,6.78H468.88a6.75,6.75,0,0,0,6.62-6.78l3.66-155.39a15.67,15.67,0,0,1,3.72-9.78c7.76-9,76-89.3,84.79-120.56a7.21,7.21,0,0,0-.12-4.26c-15.81-48.08-79.22-64.76-93.8-68l-5,32c29.67,3.72,59.87,32,65.15,39.21a4.35,4.35,0,0,1-.78,6c-19.37,15.56-35.06,38.78-43.5,51.25-2,3-3.64,5.39-4.78,6.89a5.14,5.14,0,0,1-4.76,2h0c-16.38-2.29-68.57,9.86-69.09,10l-.65.15-22.77-4.77V404.51a82.56,82.56,0,0,1-33.86-.56v18.92c0,2.44-1.53,2.84-5.33,3.8l-6.79,1.66c-4.92,1.2-9.84,2.37-9.84,2.37l-.7.17-.71-.17c-.53-.13-53.46-13-69.82-10.7a5.1,5.1,0,0,1-4.77-2c-1.14-1.5-2.75-3.88-4.78-6.89-8.44-12.47-24.13-35.69-43.5-51.25a4.35,4.35,0,0,1-.78-6c5.28-7.25,35.48-35.49,65.15-39.21ZM480.88,414.06Z"/><path class="cls-1" d="M410.21,427.16c-40.79,21.59-79.19.68-79.19.68l19.66-4.92V394.09s17.61,6.33,39.85.69v28.14Z"/><path class="cls-2" d="M370.68,440a92.5,92.5,0,0,1-41.09-9.53l-6.76-3.68,24.85-6.22V389.83l4,1.44a72.12,72.12,0,0,0,38.11.61l3.74-.95V420.5L418.9,426l-7.28,3.85A86.63,86.63,0,0,1,370.68,440Zm-30.22-11.44c11.79,4.19,35.2,9.64,60.36-.37l-13.28-2.86v-26.8a79.33,79.33,0,0,1-33.86-.47v27.19Z"/><polygon class="cls-1" points="270.27 282.14 292.89 279.66 298.27 304.14 275.27 314.14 270.27 282.14"/><path class="cls-2" d="M273.69,317,268,280.38l26.49-2.91,6.12,27.85Zm-1.12-33.11,4.28,27.37L296,303l-4.64-21.12Z"/><path class="cls-1" d="M466.14,329.63a17.11,17.11,0,0,1-15.71,17.06c-.46,0-.93.06-1.4.06a18.74,18.74,0,0,1-2.13-.13h0q.66-1.75,1.26-3.54a79.58,79.58,0,0,0,2.79-11c1.13,1.35,2.18,2.14,3.15,2.19,2.56.15,4.57-4.8,6-17.69A17.11,17.11,0,0,1,466.14,329.63Z"/><path class="cls-2" d="M449,348.75a21.68,21.68,0,0,1-2.25-.13H444l1-2.71c.44-1.16.85-2.32,1.23-3.46A78.09,78.09,0,0,0,449,331.72l.76-4.23,2.75,3.3c1.16,1.39,1.7,1.47,1.71,1.47.2-.09,2.3-1.35,3.91-15.91l.42-3.73,2.86,2.43a19.11,19.11,0,0,1-10.79,33.63C450.15,348.72,449.62,348.75,449,348.75Zm3.21-13c-.6,2.66-1.33,5.32-2.19,7.93-.11.34-.23.68-.35,1,.19,0,.37,0,.53,0a15.11,15.11,0,0,0,11.3-23.55c-1.56,11-3.77,15.34-7.57,15.1A4.31,4.31,0,0,1,452.24,335.78Z"/><path class="cls-1" d="M291.19,333.42a80.82,80.82,0,0,0,3.69,12.92,16.45,16.45,0,0,1-3.67.41,17.12,17.12,0,0,1-9.11-31.61C284.6,330.38,288,334.5,291.19,333.42Z"/><path class="cls-2" d="M291.21,348.75A19.11,19.11,0,0,1,281,313.45l2.55-1.6.49,3c2.16,13.21,4.69,16,5.68,16.61a.86.86,0,0,0,.79.09l2.16-.73.44,2.24a78.46,78.46,0,0,0,3.6,12.6l.83,2.16-2.26.51A18.89,18.89,0,0,1,291.21,348.75Zm-10.5-30a15.12,15.12,0,0,0,10.5,26l1,0a82.12,82.12,0,0,1-2.58-9.18,5.07,5.07,0,0,1-1.89-.68C285.78,333.7,283,330.74,280.71,318.75Z"/><path class="cls-4" d="M291.19,333.42c-3.2,1.08-6.59-3-9.09-18.28-.24-1.51-.49-3.14-.72-4.88-3.3-25-2.2-95.65,92.57-95.65,80.29,0,59.46,28,59.46,28s33.87-3.15,27.07,70.15q-.18,2-.39,3.78c-2,17.75-5,20.45-9.14,15.5-2.73-3.28-5.91-9.91-9.56-17.74-8.55-18.35-19.62-43.27-33.14-47.12,0,0-45.45,11.47-77.53,17.1-13,2.29-26.48,10.68-30.18,30.82l0,.14C299.37,321.35,295.44,332,291.19,333.42Z"/><path class="cls-2" d="M454.18,337.27c-1.87,0-3.72-1.1-5.54-3.28-3-3.56-6.13-10.15-10-18.4l-1.1-2.35c-7.65-16.46-18.07-38.88-29.42-42.91-6.34,1.58-47.47,11.77-76.91,16.93-8.69,1.53-23.86,7.25-27.75,28.41a1.68,1.68,0,0,1-.06.27c-.9,4.7-4.82,18.1-11.27,20.31h0a5.81,5.81,0,0,1-5-.55c-3.65-2.18-6.13-8.38-8.05-20.08-.25-1.55-.5-3.22-.73-5-1.74-13.1-3.42-46.2,18.23-70.91C313,221.07,339,211.61,374,211.61c36.34,0,57.67,5.76,63.38,17.12a14.43,14.43,0,0,1,.66,11.34,25.21,25.21,0,0,1,12.72,7.09c11.46,11.45,15.75,33.63,12.76,65.9-.13,1.36-.25,2.65-.4,3.86-1.5,13.49-3.53,19-7.48,20.14A4.92,4.92,0,0,1,454.18,337.27Zm-164-6.69h0l1,2.84ZM408.3,264.11l.77.22c14.27,4.06,25.18,27.52,33.94,46.38l1.1,2.35c3.39,7.3,6.65,14.09,9.14,17.09a9,9,0,0,0,.74.79c.67-1.13,2-4.54,3.12-14.7.14-1.18.27-2.43.39-3.73,3.51-37.88-4.06-54.14-11-61.11-6.2-6.2-12.72-5.78-12.79-5.77l-6.69.62,4-5.4c.13-.18,3.36-4.75.95-9.47-2.63-5.15-13.67-13.77-58-13.77-33.13,0-57.62,8.77-72.79,26.09-20.61,23.51-18.07,56.59-16.81,66.16.23,1.69.47,3.31.71,4.8,2.22,13.52,4.79,15.64,5.2,15.9,2.05-.8,5.93-8.55,7.3-15.85l.05-.23c4.61-24.65,22.39-31.33,32.59-33.13,31.61-5.54,76.86-16.93,77.32-17.05ZM297.59,314.6v0Z"/><path class="cls-1" d="M450.94,332.07a79.58,79.58,0,0,1-2.79,11c-.39,1.19-.81,2.37-1.25,3.54a81.46,81.46,0,0,1-57.36,50.12c-.68.16-1.36.31-2.05.45l-2.06.41c-.5.09-1,.18-1.52.25h-.05L383,398c-.57.09-1.14.16-1.71.23s-1,.12-1.45.18l-1.75.17c-.74.07-1.47.11-2.21.16l-1.33.07c-.52,0-1,.05-1.57.05h-.23l-1.79,0a81.37,81.37,0,0,1-76.05-52.55,79.8,79.8,0,0,1-3.69-12.92c2.91-1,5.68-6.33,7.5-11.54.17-.47.33-.94.48-1.42l.42-1.38q.2-.69.36-1.35c.23-.87.41-1.7.56-2.46l0-.14c3.7-20.14,17.16-28.53,30.18-30.82,32.08-5.63,77.53-17.1,77.53-17.1a12.12,12.12,0,0,1,1.5.52h0l.59.26.4.19a.3.3,0,0,1,.08,0,1.58,1.58,0,0,1,.26.13l.45.23.44.25.07,0,.08.05a3.78,3.78,0,0,1,.46.28l.06,0,.55.36.08.06c.4.26.78.55,1.18.84l.54.43h0l.3.26q1,.85,2,1.86l.5.5a.6.6,0,0,1,.08.08l.48.5.1.11c.11.12.22.25.34.37s.43.48.65.73a1,1,0,0,1,.14.16l.41.47c.18.21.35.43.53.65.07.07.13.15.19.22l.35.45.54.68.21.28c.11.13.21.27.32.41l1.05,1.44c.34.49.69,1,1,1.5l.32.46a3,3,0,0,0,.19.3l.34.5a2.61,2.61,0,0,0,.17.28c.49.76,1,1.55,1.47,2.34l0,.06.5.82c.14.22.27.46.41.69s.37.62.55.94l0,0c.05.1.11.18.15.27l.64,1.12c.05.1.12.21.18.32.29.52.59,1,.89,1.6l.2.37c.13.23.25.46.37.69l.51,1c.29.54.57,1.07.85,1.62.62,1.18,1.22,2.37,1.81,3.57.19.37.38.74.56,1.11.33.66.66,1.33,1,2l.23.49.86,1.79c.52,1.11,1.05,2.2,1.55,3.28,1.15,2.45,2.26,4.84,3.32,7.14C445,322.16,448.22,328.79,450.94,332.07Z"/><path class="cls-2" d="M370.93,400.89A83.36,83.36,0,0,1,293,347.05a82.15,82.15,0,0,1-3.79-13.25l-.33-1.71,1.65-.57c1.51-.52,4-3.9,6.26-10.3.17-.46.32-.9.46-1.35s.28-.91.41-1.35.24-.86.34-1.27c.21-.82.39-1.61.54-2.36v-.09c4.44-24.17,21.84-30.71,31.81-32.46,31.65-5.56,76.94-16.95,77.39-17.07l.52-.13.52.15c.47.13.92.28,1.34.44h0l1,.43.46.21.18.09.25.13.42.22.49.27h0l0,0,.15.08.43.25.17.11.67.45c.42.27.83.58,1.25.89l0,0h0l.87.73c.69.57,1.4,1.22,2.15,2,.11.1.24.22.36.35l.1.1a2.28,2.28,0,0,1,.22.22l.42.45.16.17.29.32c.23.24.45.49.67.74l.2.23.39.46.57.68.21.26.35.44c.18.23.37.46.55.7l.24.31.28.37c.39.51.76,1,1.12,1.53l.1.15.95,1.36.33.49a2.13,2.13,0,0,0,.13.21l.41.62.14.21c.53.83,1,1.63,1.53,2.44l0,.09c.15.23.32.51.49.8.08.12.17.28.27.44l.14.25c.2.33.4.66.59,1l0,.06.15.25.76,1.35.94,1.7.2.37c.14.24.27.49.4.72l.5,1c.29.53.58,1.08.86,1.63q.93,1.79,1.83,3.6l.14.28.42.86c.32.63.65,1.31,1,2l.24.5c.28.6.57,1.2.85,1.79q.79,1.67,1.56,3.3c1.15,2.44,2.26,4.84,3.33,7.13,3.55,7.64,6.71,14.22,9.28,17.31l.6.72-.17.91a83,83,0,0,1-2.86,11.29c-.38,1.16-.8,2.35-1.28,3.62a83.48,83.48,0,0,1-26.39,35.77A82.25,82.25,0,0,1,390,398.69c-.7.16-1.4.32-2.1.46s-1.4.29-2.11.41l-1.25.22-.14.07H384l-.76.12-1.77.24-1.47.17h-.11l-1.7.17c-.72.07-1.46.12-2.21.16-.49,0-.95.06-1.42.08l-1.55.05h-.32Zm-77.49-66.43a78.08,78.08,0,0,0,3.31,11.17,79.26,79.26,0,0,0,74.18,51.26l1.77,0h.22c.51,0,1,0,1.51-.05s.86,0,1.28-.07c.76,0,1.45-.09,2.16-.15l1.63-.16,1.51-.18c.56-.07,1.11-.14,1.66-.23l.95-.15c.48-.07,1-.15,1.44-.24.69-.12,1.36-.26,2-.4s1.34-.29,2-.44A78.18,78.18,0,0,0,419.91,380,79.32,79.32,0,0,0,445,345.9c.46-1.21.86-2.33,1.22-3.44a78.08,78.08,0,0,0,2.56-9.86c-2.73-3.65-5.81-10.07-9.24-17.43L436.25,308c-.5-1.07-1-2.17-1.55-3.26-.28-.6-.57-1.2-.85-1.79l-.24-.5c-.31-.64-.63-1.3-1-1.95l-.41-.83-.14-.29q-.89-1.79-1.8-3.54l-.84-1.6-.51-1c-.12-.22-.22-.42-.34-.62l-.06-.11c0-.09-.09-.17-.14-.26-.32-.59-.62-1.12-.91-1.64l-1.05-1.86c-.13-.21-.29-.49-.46-.76l-.16-.28c-.08-.13-.15-.26-.23-.38l-.49-.81c-.53-.87-1-1.64-1.5-2.39l-.22-.34c-.06-.09-.15-.24-.26-.39l-.24-.37-.26-.38c-.32-.47-.62-.91-.93-1.34l-.1-.15c-.33-.47-.66-.93-1-1.37l-.31-.41-.17-.22c-.22-.29-.4-.5-.57-.72l-.35-.44a1.71,1.71,0,0,0-.11-.14l-.57-.68-.52-.61c-.21-.23-.41-.47-.61-.68l-1.13-1.19c-.1-.1-.19-.2-.3-.3-.69-.68-1.31-1.25-1.93-1.76l-.3-.26-.5-.39c-.33-.25-.69-.51-1.06-.76l-.79-.52-.22-.12-.23-.13a3,3,0,0,0-.33-.19l-.44-.24L410,270l-1-.47a7.51,7.51,0,0,0-.76-.28C403,270.6,361,281,331.06,286.28c-8.95,1.57-24.56,7.46-28.56,29.21v.11c-.17.88-.37,1.75-.6,2.63-.11.45-.24.92-.38,1.41s-.28.95-.44,1.43-.32,1-.5,1.49C299.32,326.14,296.85,332,293.44,334.46Zm90.42,61.4h0Z"/><path class="cls-2" d="M371.14,375.7c-9.38,0-18-4.12-22.57-10.75a2.75,2.75,0,0,1,3.46-4h0a44.57,44.57,0,0,0,19.11,4.44A44,44,0,0,0,390.09,361a2.81,2.81,0,0,1,3.37.72,2.77,2.77,0,0,1,.13,3.42C388.92,371.65,380.31,375.7,371.14,375.7Zm-15.35-8.94a25.66,25.66,0,0,0,15.35,4.94,25.34,25.34,0,0,0,15.26-4.9,46.86,46.86,0,0,1-30.61,0Zm-5.49-2.24h0Z"/><path class="cls-2" d="M311.27,312.14a2,2,0,0,1-1.57-.77,2,2,0,0,1,.33-2.8c.75-.59,18.47-14.31,37.73-10.14a2,2,0,0,1-.84,3.91c-17.39-3.76-34.25,9.24-34.42,9.37A2,2,0,0,1,311.27,312.14Z"/><path class="cls-2" d="M430.34,312.14a2,2,0,0,1-1.24-.43c-.16-.13-17-13.14-34.41-9.37a2,2,0,1,1-.84-3.91c19.26-4.17,37,9.55,37.73,10.14a2,2,0,0,1,.33,2.81A2,2,0,0,1,430.34,312.14Z"/><path class="cls-2" d="M329.87,332.25c-7.39,0-13.72-6.23-14-6.52a2,2,0,1,1,2.82-2.83c.11.1,6.76,6.59,13.1,5.14,4-.91,7.2-4.81,9.6-11.62a2,2,0,0,1,3.78,1.34c-2.89,8.18-7.1,13-12.51,14.19A12.65,12.65,0,0,1,329.87,332.25Z"/><path class="cls-2" d="M409.67,332.25a12.65,12.65,0,0,1-2.78-.3c-5.41-1.23-9.62-6-12.51-14.19a2,2,0,1,1,3.78-1.34c2.4,6.81,5.63,10.72,9.62,11.62,6.38,1.45,13-5.07,13.08-5.14a2,2,0,0,1,2.82,2.83C423.39,326,417.06,332.25,409.67,332.25Z"/><path class="cls-1" d="M82.72,230.83H97.87a10.32,10.32,0,0,1,10.31,10.31V356.87a10.31,10.31,0,0,1-10.31,10.3H13.31A10.3,10.3,0,0,1,3,356.87V241.14a10.31,10.31,0,0,1,10.31-10.31H82.72Z"/><path class="cls-2" d="M97.87,370.17H13.31A13.32,13.32,0,0,1,0,356.87V241.14a13.32,13.32,0,0,1,13.31-13.31H97.87a13.32,13.32,0,0,1,13.31,13.31V356.87A13.32,13.32,0,0,1,97.87,370.17ZM13.31,233.83A7.32,7.32,0,0,0,6,241.14V356.87a7.31,7.31,0,0,0,7.31,7.3H97.87a7.31,7.31,0,0,0,7.31-7.3V241.14a7.32,7.32,0,0,0-7.31-7.31Z"/><rect class="cls-1" x="35.64" y="208.93" width="40.22" height="37.51"/><rect class="cls-5" x="16.84" y="296.98" width="16.88" height="16.88"/><path class="cls-1" d="M23.25,310.36a1,1,0,0,1-.71-.3l-3.81-3.81a1,1,0,1,1,1.41-1.41l3.11,3.1,7.16-7.17a1,1,0,0,1,1.42,1.42L24,310.06A1,1,0,0,1,23.25,310.36Z"/><path class="cls-1" d="M20.41,341.08a1,1,0,0,1-.71-1.71l9.74-9.74a1,1,0,0,1,1.41,1.42l-9.73,9.73A1,1,0,0,1,20.41,341.08Z"/><path class="cls-5" d="M67.4,222.57H63.24s0-.06,0-.09a7.24,7.24,0,0,0-14.47,0,.28.28,0,0,0,0,.09h-5a4,4,0,0,0-4,4v13.34H71.41V226.58A4,4,0,0,0,67.4,222.57ZM56,226.48a4,4,0,1,1,4-4A4,4,0,0,1,56,226.48Z"/><path class="cls-2" d="M94.75,277.63H44.11a2,2,0,0,1,0-4H94.75a2,2,0,0,1,0,4Z"/><path class="cls-2" d="M94.75,307.5H44.11a2,2,0,0,1,0-4H94.75a2,2,0,0,1,0,4Z"/><path class="cls-2" d="M94.75,337.36H44.11a2,2,0,0,1,0-4H94.75a2,2,0,0,1,0,4Z"/><rect class="cls-5" x="16.84" y="267.07" width="16.88" height="16.88"/><path class="cls-1" d="M23.25,280.45a1,1,0,0,1-.71-.3l-3.81-3.81a1,1,0,0,1,1.41-1.41l3.11,3.1,7.16-7.17a1,1,0,0,1,1.42,1.42L24,280.15A1,1,0,0,1,23.25,280.45Z"/><rect class="cls-5" x="16.84" y="327.07" width="16.88" height="16.88"/><path class="cls-1" d="M23.25,340.45h0a1,1,0,0,1-.71-.3l-3.81-3.81a1,1,0,0,1,1.41-1.41l3.11,3.1,7.16-7.17a1,1,0,0,1,1.42,1.42L24,340.15A1,1,0,0,1,23.25,340.45Z"/><circle class="cls-1" cx="220.97" cy="67.01" r="57.46"/><path class="cls-2" d="M221,127.46A60.46,60.46,0,1,1,281.43,67,60.52,60.52,0,0,1,221,127.46Zm0-114.91A54.46,54.46,0,1,0,275.43,67,54.52,54.52,0,0,0,221,12.55Z"/><path class="cls-2" d="M222,19.29a2,2,0,0,1-2-2V9.55a2,2,0,0,1,4,0v7.74A2,2,0,0,1,222,19.29Z"/><path class="cls-2" d="M197,25.41a2,2,0,0,1-1.73-1l-3.87-6.71a2,2,0,1,1,3.46-2l3.87,6.71a2,2,0,0,1-1.73,3Z"/><path class="cls-2" d="M178.41,43.2a2,2,0,0,1-1-.26l-6.71-3.88a2,2,0,1,1,2-3.46l6.71,3.87a2,2,0,0,1,.73,2.73A2,2,0,0,1,178.41,43.2Z"/><path class="cls-2" d="M171.21,67.91h-7.75a2,2,0,0,1,0-4h7.75a2,2,0,0,1,0,4Z"/><path class="cls-2" d="M170.62,96.79a2,2,0,0,1-1-3.73l6.71-3.88a2,2,0,1,1,2,3.47l-6.71,3.87A2,2,0,0,1,170.62,96.79Z"/><path class="cls-2" d="M191.24,118.22a2,2,0,0,1-1-.27,2,2,0,0,1-.74-2.73l3.88-6.71a2,2,0,0,1,3.46,2L193,117.22A2,2,0,0,1,191.24,118.22Z"/><path class="cls-2" d="M219.83,126.46a2,2,0,0,1-2-2v-7.74a2,2,0,0,1,4,0v7.74A2,2,0,0,1,219.83,126.46Z"/><path class="cls-2" d="M248.71,119.31a2,2,0,0,1-1.74-1l-3.87-6.71a2,2,0,0,1,3.46-2l3.88,6.71a2,2,0,0,1-.74,2.73A1.9,1.9,0,0,1,248.71,119.31Z"/><path class="cls-2" d="M270.13,98.68a1.93,1.93,0,0,1-1-.27l-6.71-3.87a2,2,0,1,1,2-3.46L271.13,95a2,2,0,0,1-1,3.73Z"/><path class="cls-2" d="M278.38,70.1h-7.75a2,2,0,0,1,0-4h7.75a2,2,0,0,1,0,4Z"/><path class="cls-2" d="M264.52,45.1a2,2,0,0,1-1-3.74l6.71-3.87a2,2,0,1,1,2,3.46l-6.71,3.88A2,2,0,0,1,264.52,45.1Z"/><path class="cls-2" d="M246.72,26.5a1.93,1.93,0,0,1-1-.27A2,2,0,0,1,245,23.5l3.87-6.71a2,2,0,0,1,3.47,2l-3.87,6.71A2,2,0,0,1,246.72,26.5Z"/><path class="cls-5" d="M220.59,66l.09-38.11a38.1,38.1,0,0,1,33.09,19.37Z"/><path class="cls-1" d="M616.72,27v85.74a2.37,2.37,0,0,1-2.37,2.37H499.52a2.37,2.37,0,0,1-2.37-2.37V29.4A2.37,2.37,0,0,1,499.52,27h117.2Z"/><path class="cls-2" d="M614.35,118.13H499.52a5.38,5.38,0,0,1-5.37-5.37V29.4A5.38,5.38,0,0,1,499.52,24h120.2v88.74A5.38,5.38,0,0,1,614.35,118.13Zm-114.2-6H613.72V30H500.15Z"/><path class="cls-2" d="M545.92,85.44H511.31a2,2,0,0,1,0-4h34.61a2,2,0,0,1,0,4Z"/><path class="cls-2" d="M603.35,101.45h-92a2,2,0,0,1,0-4h92a2,2,0,0,1,0,4Z"/><ellipse class="cls-3" cx="527.38" cy="41.66" rx="6.3" ry="6.49"/><path class="cls-2" d="M527.38,50.15a8.49,8.49,0,1,1,8.3-8.49A8.41,8.41,0,0,1,527.38,50.15Zm0-13a4.49,4.49,0,1,0,4.3,4.49A4.4,4.4,0,0,0,527.38,37.17Z"/><path class="cls-3" d="M534.47,49.66,528.19,56a1.15,1.15,0,0,1-1.61,0l-6.29-6.29a1.14,1.14,0,0,0-1.41-.17,15.77,15.77,0,0,0-7.29,13.31v1.35a1.14,1.14,0,0,0,1.14,1.14H542a1.14,1.14,0,0,0,1.14-1.14V62.8a15.77,15.77,0,0,0-7.3-13.31A1.15,1.15,0,0,0,534.47,49.66Z"/><path class="cls-3" d="M577.84,54.79a4.24,4.24,0,0,0-4.34,4.12V73.59a4.24,4.24,0,0,0,4.34,4.12H588V54.79Z"/><path class="cls-2" d="M590,79.71H577.84a6.24,6.24,0,0,1-6.34-6.12V58.91a6.24,6.24,0,0,1,6.34-6.12H590ZM577.84,56.79a2.24,2.24,0,0,0-2.34,2.12V73.59a2.24,2.24,0,0,0,2.34,2.12H586V56.79Z"/><path class="cls-3" d="M588,77.71h12.1a4,4,0,0,0,3.94-4.12v-8.1H588Z"/><path class="cls-2" d="M600.12,79.71H586V63.49h20v10.1A6,6,0,0,1,600.12,79.71Zm-10.11-4h10.11a2,2,0,0,0,1.93-2.12v-6.1H590Z"/><path class="cls-3" d="M600.11,54.79H588v10.7h16V58.91A4,4,0,0,0,600.11,54.79Z"/><path class="cls-2" d="M606.05,67.49H586V52.79h14.11a6,6,0,0,1,5.93,6.12Zm-16-4h12V58.91a2,2,0,0,0-1.93-2.12H590Z"/><circle class="cls-1" cx="616.72" cy="27.02" r="27.02"/><path class="cls-5" d="M617,5.32a21.75,21.75,0,1,0,21.74,21.75A21.75,21.75,0,0,0,617,5.32Zm-4,32.92-9.58-9.58,3.19-3.19L613,31.85l14.36-14.36,3.19,3.19Z"/><path class="cls-1" d="M753.77,270.41v90.43a10,10,0,0,1-10,10H658.56a10,10,0,0,1-10-10V244.44a10,10,0,0,1,10-10h85.86a10,10,0,0,1,10,10.21Z"/><path class="cls-2" d="M743.81,373.81H658.56a13,13,0,0,1-13-13V244.44a13,13,0,0,1,13-13h85.86a13,13,0,0,1,13,13.28l-.61,25.7v90.39A13,13,0,0,1,743.81,373.81ZM658.56,237.47a7,7,0,0,0-7,7v116.4a7,7,0,0,0,7,7h85.25a7,7,0,0,0,7-7V270.41a.17.17,0,0,1,0-.07l.61-25.74a7,7,0,0,0-7-7.13Z"/><circle class="cls-1" cx="754.39" cy="236.47" r="27.02"/><path class="cls-2" d="M707.9,263.9H667.63a2,2,0,0,1,0-4H707.9a2,2,0,0,1,0,4Z"/><path class="cls-2" d="M733.2,285.09H667.63a2,2,0,0,1,0-4H733.2a2,2,0,0,1,0,4Z"/><path class="cls-2" d="M733.2,306.29H667.63a2,2,0,0,1,0-4H733.2a2,2,0,0,1,0,4Z"/><path class="cls-2" d="M733.2,327.49H667.63a2,2,0,0,1,0-4H733.2a2,2,0,0,1,0,4Z"/><path class="cls-2" d="M733.2,348.69H667.63a2,2,0,0,1,0-4H733.2a2,2,0,0,1,0,4Z"/><path class="cls-1" d="M763.72,245.86a1,1,0,0,1-.71-.29l-18.18-18.18a1,1,0,0,1,0-1.42,1,1,0,0,1,1.41,0l18.18,18.18a1,1,0,0,1-.7,1.71Z"/><path class="cls-5" d="M755,213.32a21.75,21.75,0,1,0,21.74,21.75A21.75,21.75,0,0,0,755,213.32Zm-4,32.92-9.58-9.58,3.19-3.19,6.39,6.38,14.36-14.36,3.19,3.19Z"/></g></g></svg>